<?xml version="1.0" standalone="no"?>
<!DOCTYPE svg PUBLIC "-//W3C//DTD SVG 1.1//EN" "http://www.w3.org/Graphics/SVG/1.1/DTD/svg11.dtd" >
<svg xmlns="http://www.w3.org/2000/svg" xmlns:xlink="http://www.w3.org/1999/xlink" version="1.1">
<metadata></metadata>
<defs>
<font id="pradaregular" horiz-adv-x="1044" >
<font-face units-per-em="2048" ascent="1536" descent="-512" />
<missing-glyph horiz-adv-x="452" />
<glyph unicode="&#xfb01;" horiz-adv-x="1067" d="M-473.5 -334.5q5.5 40.5 31.5 77.5t72 68t104 46q82 23 172 20q74 172 338 754h-105l39 82h103q33 73 61 136t45.5 101.5t44.5 96.5q99 208 221 318.5t268 127t320 -46.5q74 -27 109.5 -78t35.5 -108q0 -66 -46.5 -112t-112.5 -46q-65 0 -111.5 46t-46.5 112q0 40 23 81 q-37 20 -73.5 22t-66.5 -9t-61 -37t-55 -55t-49.5 -70t-43.5 -74.5t-38 -75.5q-24 -47 -81.5 -174t-70.5 -155h106l-38 -82h-107q-258 -558 -352 -793q47 -12 178 -50.5t211 -57.5q92 -23 172 -26.5t129 8t84.5 26.5t49.5 28l15 13q0 -3 0.5 -8t-1 -20.5t-5 -30t-12.5 -34.5 t-21.5 -36.5t-35 -32.5t-50.5 -26.5t-69.5 -15.5t-91.5 -1q-80 4 -284 74.5t-306 95.5q-17 -39 -37.5 -73t-57 -73.5t-79.5 -65t-106 -38t-136 -2.5q-68 9 -112 36t-60 62t-10.5 75.5zM-373 -330q10 -40 80 -51q51 -8 86.5 36.5t73.5 133.5q-2 2 -8 2q-120 11 -192 -44 q-50 -37 -40 -77zM611 111q-28 55 5 135q33 84 119.5 279t156.5 348l71 153l219 -104q-222 -460 -316 -727q-10 -46 8.5 -71t79.5 -11q106 25 248 241l51 -24q-187 -330 -424 -330q-73 0 -131.5 28t-86.5 83z" />
<glyph unicode="&#xfb02;" horiz-adv-x="1056" d="M-467.5 -334.5q5.5 40.5 31.5 77.5t72 68t104 46q82 23 172 20q74 172 338 754h-105l39 82h103q140 310 151 334q116 256 330 407q113 80 279.5 85t266.5 -74.5t38 -213.5q-366 -780 -463 -1056q-12 -46 6.5 -71t79.5 -11q104 24 242 235l59 -18q-187 -330 -424 -330 q-73 0 -131.5 28t-86.5 83t3 135q43 111 239 546t271 588q20 38 -5 73q-30 41 -92 22q-113 -36 -243 -253q-48 -79 -96 -180q-21 -44 -76.5 -165t-75.5 -164h107l-39 -82h-107q-258 -558 -352 -793q47 -12 178 -50.5t211 -57.5q92 -23 172 -26.5t129 8t85 26.5t51 28l14 13 q0 -3 0.5 -8t-1 -20.5t-5 -30t-12.5 -34.5t-22 -36.5t-35.5 -32.5t-50.5 -26.5t-69.5 -15.5t-91.5 -1q-80 4 -284 74.5t-306 95.5q-17 -39 -37.5 -73t-57 -73.5t-79.5 -65t-106 -38t-136 -2.5q-68 9 -112 36t-60 62t-10.5 75.5zM-365 -330q10 -40 80 -51q51 -8 86.5 36.5 t73.5 133.5q-2 2 -8 2q-120 11 -192 -44q-50 -37 -40 -77z" />
<glyph horiz-adv-x="0" />
<glyph horiz-adv-x="682" />
<glyph unicode=" "  horiz-adv-x="452" />
<glyph unicode="&#x09;" horiz-adv-x="452" />
<glyph unicode="&#xa0;" horiz-adv-x="452" />
<glyph unicode="!" horiz-adv-x="868" d="M205 117q0 -49 33.5 -83t80.5 -34q48 0 82.5 34t34.5 83q0 47 -34.5 80.5t-82.5 33.5q-47 0 -80.5 -33.5t-33.5 -80.5zM301 342l401 1030h273l-471 -1075z" />
<glyph unicode="&#x22;" horiz-adv-x="673" d="M236 946q87 16 142.5 73.5t49.5 110.5q-42 6 -60.5 38.5t-5.5 76.5q15 47 60 81t92 34q69 0 79 -70q11 -77 -47 -175q-65 -110 -166 -153q-70 -30 -144 -16zM565 946q87 16 143 74t50 110q-40 6 -59.5 38.5t-6.5 76.5q15 47 60 81t92 34q69 0 79 -70q11 -76 -47 -174 q-65 -111 -166 -154q-71 -30 -145 -16z" />
<glyph unicode="#" horiz-adv-x="1615" d="M201 324l73 172h304l92 211h-322l74 172h323l218 493h208l-233 -493h281l217 493h209l-234 -493h268l-73 -172h-277l-100 -211h303l-74 -172h-311l-236 -494l-133 45l197 449h-301l-236 -494l-133 45l197 449h-301zM756 496h295l94 211h-289z" />
<glyph unicode="$" horiz-adv-x="1089" d="M269 351q-33 68 12 149q40 72 111 97q84 29 157 -32q-56 0 -99 -62q-41 -61 -30 -114q12 -57 84 -57q70 -3 124.5 31t61.5 100q3 35 -15.5 81.5t-47 95t-56.5 101t-45.5 114t-11.5 118.5q7 70 44.5 119.5t96 74.5t117.5 35t127 10q176 0 221 -95q33 -67 -11 -148 q-40 -72 -111 -98q-84 -30 -158 32q50 0 90 67t30 126t-71 59q-116 0 -131 -141q-4 -46 15.5 -99t50.5 -102t61.5 -99t50 -107t14.5 -109q-26 -242 -458 -242q-176 0 -223 95zM354 -166l115 354h12q51 0 103 9l-117 -363h-113zM805 1272l115 346h114l-114 -338h-11 q-57 0 -104 -8z" />
<glyph unicode="%" horiz-adv-x="0" />
<glyph unicode="&#x26;" horiz-adv-x="1587" d="M133 304q25 153 161 270q98 85 238 131q-45 60 -70.5 122t-30.5 117.5t4 110t32.5 99.5t56 87t74.5 72.5t87 55.5t94 35.5t96 13.5t92 -11q124 -34 184 -141q52 -94 26 -188q-26 -92 -118 -121q-70 -23 -166 -1q76 69 105 154.5t7 142t-77 56.5q-56 0 -105.5 -27.5 t-84 -73.5t-53 -107.5t-18 -126t25 -134t73.5 -127.5q-218 -112 -323 -279q-81 -131 -60 -235q18 -88 102 -109q23 -6 50 -6q91 0 179 79.5t105 178.5q2 9 3 19t1.5 22.5t1.5 19.5q-35 22 -52 54.5t-15.5 63.5t10.5 58.5t23 44.5t26 17q17 0 58.5 -5.5t74.5 -11.5l33 -6 q27 -2 40 -61.5t1 -142.5q52 -56 140 -40.5t149 91.5q61 75 70 145t-30.5 113t-113.5 45q113 88 217 56q75 -23 106 -98q39 -93 -19 -195q-28 -48 -75 -91q-94 -85 -222.5 -118t-244.5 -9q-19 -56 -47 -105.5t-74 -97.5t-103 -82.5t-137.5 -55.5t-174.5 -21q-183 0 -275 114 q-80 100 -57 239z" />
<glyph unicode="'" horiz-adv-x="407" d="M276 946q87 16 143 74t50 110q-40 6 -59.5 38.5t-6.5 76.5q15 47 60 81t92 34q69 0 79 -70q11 -76 -47 -174q-65 -111 -166 -154q-71 -30 -145 -16z" />
<glyph unicode="(" horiz-adv-x="917" d="M212 153.5q-23 232.5 48 483.5q78 280 241 513.5t371.5 368t415.5 134.5h15l-58 -156q-166 -15 -334.5 -138.5t-302.5 -325.5t-198 -437q-60 -220 -43 -411.5t108 -311.5q57 -75 141 -111l-41 -116q-136 32 -221 135q-119 140 -142 372.5z" />
<glyph unicode=")" horiz-adv-x="999" d="M-178 -352l57 155q124 11 253.5 87t241.5 195.5t202.5 281.5t138.5 338q60 218 42 409.5t-110 312.5q-58 76 -139 111l41 115q135 -28 221 -133q119 -140 142 -372.5t-50 -483.5q-77 -281 -240 -515t-371.5 -368.5t-414.5 -134.5q-3 0 -7.5 1t-6.5 1z" />
<glyph unicode="*" horiz-adv-x="833" d="M205 864l219 133l-219 133l59 99l215 -129v250h115v-250l213 129l61 -99l-221 -133l221 -133l-61 -98l-213 129v-250h-115v250l-215 -129z" />
<glyph unicode="+" horiz-adv-x="1175" d="M205 535l90 190h237l105 250h190l-104 -250h248l-90 -190h-238l-104 -250h-191l105 250h-248z" />
<glyph unicode="," horiz-adv-x="720" d="M150 -180q87 16 142.5 73.5t49.5 110.5q-40 6 -59.5 38.5t-6.5 76.5q15 47 60 80.5t92 33.5q69 0 79 -70q11 -77 -47 -175q-65 -110 -167 -153q-70 -28 -143 -15z" />
<glyph unicode="-" horiz-adv-x="890" d="M205 557l67 145h537l-68 -145h-536z" />
<glyph unicode="." horiz-adv-x="681" d="M205 115q0 47 33.5 81.5t80.5 34.5t82 -34.5t35 -81.5t-35 -81t-82 -34t-80.5 34t-33.5 81z" />
<glyph unicode="/" horiz-adv-x="1024" d="M0 -387l946 2075h180l-946 -2075h-180z" />
<glyph unicode="0" horiz-adv-x="1150" d="M2 481q8 146 64 307q57 160 151 306t204 252t232.5 168.5t233.5 62.5q110 0 188.5 -62.5t114 -168.5t27.5 -252t-64 -306q-76 -214 -212.5 -395.5t-298 -287t-308.5 -105.5q-111 0 -190 62.5t-114.5 167.5t-27.5 251zM260 169.5q18 -95.5 82 -95.5q63 0 152 95.5 t182.5 260t165.5 358.5q74 193 104.5 358t13 261t-80.5 96t-153 -96t-183.5 -261t-165.5 -358q-74 -194 -104.5 -358.5t-12.5 -260z" />
<glyph unicode="1" horiz-adv-x="681" d="M0 0l610 1360q-56 -47 -105.5 -68t-89 -14t-62.5 53t-23 129q78 -27 139.5 -25t106.5 24.5t74.5 48.5t43.5 48l15 21q4 -1 10 -3t15 -14t7 -30l121 -170l-590 -1360h-272z" />
<glyph unicode="2" horiz-adv-x="1169" d="M-84 0q0 55 20.5 113.5t52 110t84.5 111t102 106.5t121.5 107.5t126.5 102.5t133 103.5t126 99.5q233 189 287 391q34 126 -12 206q-30 52 -78 52q-86 0 -214.5 -164t-230.5 -409q-80 0 -118 65t-22.5 151.5t75.5 145.5q295 285 518 285q73 0 137.5 -36.5t108.5 -96 t62 -139t7 -161.5t-65 -168.5t-146 -154.5q-98 -72 -227.5 -152.5t-228 -137.5t-189 -114.5t-139.5 -107t-49 -90.5h487q103 0 188 37t107 104q0 -58 -8.5 -106t-21.5 -83t-35.5 -62.5t-43.5 -45t-53 -30.5t-55.5 -19t-60.5 -9.5t-59 -4t-58 -0.5h-629z" />
<glyph unicode="3" horiz-adv-x="1259" d="M-0.5 322.5q-1.5 64.5 19 132t61.5 129.5q34 51 77 86t85 50t85 21.5t79.5 3t65 -8.5t44.5 -11l16 -6q-8 -4 -20.5 -12.5t-47.5 -38t-64.5 -64t-60.5 -91t-46 -118.5q-47 -196 44 -278q69 -63 187 -34q122 31 216 141q37 44 63 95q34 66 41 126.5t-8.5 105.5t-42 83.5 t-60 64.5t-62.5 44t-49 27l-20 8q29 22 96 76q233 189 287 391q34 126 -12 206q-30 52 -78 52q-86 0 -214 -164t-230 -409q-61 0 -98.5 40t-45 95.5t12.5 119t65 107.5q295 285 518 285q120 0 214 -85q98 -90 102 -218q7 -176 -171 -333q-94 -83 -235 -153q207 -76 258 -225 q46 -132 -41 -273q-85 -137 -256 -218q-155 -72 -336 -72q-108 0 -192.5 26t-135.5 70.5t-80 103t-30.5 123z" />
<glyph unicode="4" horiz-adv-x="1173" d="M0 633q118 71 233.5 187.5t201 246.5t126.5 268t14 242q112 -71 152 -172.5t5.5 -222.5t-159.5 -263.5t-331 -285.5h395l422 944l155 -217l-315 -727h176l-88 -174h-164l-200 -459h-273l207 459h-446z" />
<glyph unicode="5" horiz-adv-x="1193" d="M-0.5 322.5q-1.5 64.5 19 132t61.5 129.5q34 51 77 86t85 50t85 21.5t79.5 3t65 -8.5t44.5 -11l16 -6q-8 -4 -20.5 -12.5t-47.5 -38t-64.5 -64t-60.5 -91t-46 -118.5q-46 -194 43 -278q69 -64 185 -37q121 27 214 134q40 48 68 105q37 75 46 144t-6.5 123t-49 100.5 t-81 78.5t-104 55t-115.5 33t-118 9t-111 -14l328 729q9 -4 25 -11.5t65 -28t98 -37.5t117.5 -34t130.5 -25t129.5 -4.5t120.5 23.5q0 -62 -36.5 -103.5t-95.5 -57.5t-130 -15.5t-143 19t-130 49.5l-172 -396q122 0 230.5 -44t178 -120t94.5 -178t-21 -219 q-29 -78 -83.5 -147t-130.5 -125.5t-180 -89.5t-221 -33q-108 0 -192.5 26t-135.5 70.5t-80 103t-30.5 123z" />
<glyph unicode="6" horiz-adv-x="1277" d="M88 481q12 145 68 307q77 216 205.5 396t285 286.5t303.5 106.5q59 0 109.5 -15t94.5 -47t69.5 -91.5t25.5 -141.5t-32 -143t-77.5 -90.5t-90 -45t-76.5 -18.5t-31 0q47 86 73 167.5t29.5 143.5t-8 109.5t-36.5 72.5t-58 25q-93 0 -232.5 -193t-250.5 -474 q66 54 148.5 73t159 4.5t141 -61.5t102.5 -116t36 -169t-53 -211q-52 -113 -155.5 -196t-217 -121.5t-223.5 -38.5q-111 0 -185.5 62t-105 168t-18.5 251zM322 189q15 -115 84 -115q36 0 82 25.5t95.5 73t99 127.5t85.5 179q80 225 11 309q-48 59 -146 25 q-103 -36 -190 -147q-63 -80 -95 -179q-41 -183 -26 -298z" />
<glyph unicode="7" horiz-adv-x="1064" d="M42.5 259.5q6.5 49.5 30 97.5t62.5 87q287 290 903 963q-76 -33 -141 -56t-134 -39.5t-124 -19t-105 11.5t-84 46.5t-53.5 90t-19.5 138.5q73 -38 184 -52t217 -7t202 19t155 25l59 13l2 -315q-617 -654 -756 -801q-103 -111 -135 -156q-98 -137 -32 -235q25 -37 71 -70 q-84 0 -147 22t-97 58.5t-49 83t-8.5 96z" />
<glyph unicode="8" horiz-adv-x="1110" d="M-34 354q21 167 175 305q113 102 281 168q30 10 67 29q-28 43 -47.5 79t-37 81t-24.5 87t-4.5 91.5t17.5 99.5q17 54 45.5 98t60.5 73t72 50.5t75 33t74.5 18t65.5 8.5t52 2q129 0 204 -90q78 -93 53 -230q-33 -179 -231 -340q-52 -42 -114 -81q57 -68 73 -84 q80 -85 113 -176.5t20.5 -173.5t-65 -156.5t-136 -128t-201 -85.5t-251.5 -32q-173 0 -268 110q-87 100 -69 244zM188 395q-60 -183 30 -269q67 -65 185 -49q120 17 208 105q59 59 83 137q14 46 14 92.5t-9.5 84.5t-32.5 84.5t-43 78t-54 80.5q-43 -20 -88.5 -46.5 t-108.5 -71t-113 -104t-71 -122.5zM572 1260q-4 -45 2 -89.5t22 -83.5q26 -65 70 -135q109 72 198 176q58 67 81 134.5t12.5 117t-47.5 80.5t-93 31q-57 0 -103 -19t-74.5 -51.5t-46 -74t-21.5 -86.5z" />
<glyph unicode="9" horiz-adv-x="1193" d="M0 293q0 190 163 266q73 33 138 34l6 -1q-47 -86 -73 -168t-29.5 -144t8 -109.5t36.5 -72t58 -24.5q94 0 233.5 193.5t250.5 473.5q-50 -41 -109.5 -62.5t-118.5 -22.5t-116.5 16.5t-105 50t-81.5 83.5t-49 112t-4.5 140t49.5 163q39 85 109 154.5t152 112.5t168.5 66 t166.5 23q111 0 186 -62.5t105.5 -169t18.5 -251.5t-68 -306q-76 -216 -205.5 -396t-286 -286t-303.5 -106q-59 0 -109.5 14.5t-94.5 47t-69.5 91.5t-25.5 140zM470 788q48 -58 146 -24q104 36 191 148q62 80 94 178q41 183 26.5 298t-83.5 115q-80 0 -187 -107.5 t-176 -299.5q-80 -225 -11 -308z" />
<glyph unicode=":" horiz-adv-x="632" d="M205 324q0 49 33 82.5t81 33.5t82.5 -33.5t34.5 -82.5q0 -47 -35 -81t-82 -34t-80.5 34t-33.5 81zM319 723q0 47 35 81t82 34t81 -34t34 -81t-34 -82t-81 -35t-82 35t-35 82z" />
<glyph unicode=";" horiz-adv-x="671" d="M145 43q87 16 143 74t50 110q-40 6 -59.5 38.5t-6.5 76.5q15 47 60 81t92 34q69 0 79 -70q11 -76 -47 -174q-65 -111 -166 -154q-71 -30 -145 -16zM358 723q0 47 34 81t81 34t82 -34t35 -81t-35 -82t-82 -35t-81 35t-34 82z" />
<glyph unicode="&#x3c;" horiz-adv-x="954" d="M205 573v2l758 357l-80 -225l-387 -183l237 -233l-63 -176z" />
<glyph unicode="=" horiz-adv-x="1257" d="M205 356l90 191h792l-92 -191h-790zM375 713l92 190h790l-90 -190h-792z" />
<glyph unicode="&#x3e;" horiz-adv-x="966" d="M205 115l80 225l387 182l-238 236l64 174l465 -459z" />
<glyph unicode="?" horiz-adv-x="1187" d="M205 117q0 47 33.5 80.5t80.5 33.5q48 0 82.5 -33.5t34.5 -80.5q0 -49 -34.5 -83t-82.5 -34q-47 0 -80.5 34t-33.5 83zM319 381q0 65 32.5 122.5t84.5 101.5t115 84.5l126 81t115 82.5t84.5 96.5t32.5 115.5q0 81 -27 139t-69.5 82.5t-90 27t-93.5 -23.5t-76 -73 q-70 -114 -28.5 -207t155.5 -95q-63 -56 -134 -63.5t-122 29t-82.5 92.5t-19 131t72.5 139q54 58 132 92.5t160 42.5t164 -11t146 -60t104 -112t40 -161q0 -75 -40.5 -140.5t-105 -112.5t-142 -88.5t-155.5 -76.5t-142.5 -68.5t-105 -73t-40.5 -81.5q0 -31 -23 -44.5 t-45.5 -3.5t-22.5 36z" />
<glyph unicode="@" horiz-adv-x="1929" d="M212 -44.5q-23 233.5 48 484.5q78 280 241 513.5t371.5 368t415.5 134.5q253 0 406 -201q117 -152 144 -377t-52 -479q-28 -85 -63.5 -154t-72.5 -115t-81 -80.5t-83 -54t-84 -30.5t-79.5 -14.5t-73.5 -3.5q-80 0 -142 37.5t-69 103.5q-116 -137 -241 -137 q-194 0 -231 159.5t96 419.5q128 255 319 351q41 19 78 0l205 -97q26 -13 -1.5 -80t-109.5 -140t-188 -91q79 52 130 127t44 141q-34 -20 -74 -52.5t-89.5 -87.5t-89 -118t-68.5 -149.5t-34 -177.5q-3 -59 16 -88t74 -17q86 20 205 187q40 96 113.5 259t126.5 279l53 115 l201 -94q-203 -422 -289 -670q-10 -43 7 -65.5t73 -10.5q28 7 60.5 30t71 66t76.5 119t66 174q60 219 42.5 411t-109.5 312q-109 140 -283 140q-171 0 -349.5 -121.5t-320 -329.5t-208.5 -453q-60 -220 -43 -411.5t108 -311.5q106 -139 285 -139q117 0 243.5 61.5 t247.5 178.5l58 -60q-68 -78 -164 -141t-204.5 -98.5t-215.5 -42t-205.5 30.5t-165.5 116q-119 140 -142 373.5z" />
<glyph unicode="A" horiz-adv-x="1904" d="M3 368q7 120 104 197q78 62 167 62q9 0 19 -1q109 -8 161 -103q35 -64 35 -157q0 -50 -10 -108q-21 145 -112 184q-28 12 -56 12l-84 -26q-68 -42 -80 -120q-2 -15 -2 -30q0 -94 97 -184q58 -54 120 -70q30 -7 58 -7q32 0 60 9q56 17 115 63.5t109 104.5t103 136 q162 245 299 430q-86 18 -160 19h-11q-67 0 -109 -11q-46 -12 -78.5 -26.5t-45.5 -27.5l-14 -12q0 3 -0.5 8t1 20.5t5 30t12.5 34.5t22 36.5t35.5 32.5t50.5 26.5t70 15.5q23 3 48 3q21 0 43 -2q83 -6 205 -49q236 365 460 549q163 134 279 134q44 0 82 -19l217 -103 q-176 -382 -332 -731q63 4 108 29t60 57q1 -5 2 -12.5t-1.5 -29.5t-11 -40t-31.5 -37.5t-58 -29.5q-52 -15 -105 -21q-127 -292 -170 -411q-52 -147 -59 -193q-110 6 -172 72q-38 40 -37 95q0 36 16 79q82 186 168 381q-35 7 -78 18t-75 20.5t-85 25t-83 24.5 q-77 -123 -197 -325.5t-155 -258.5q-74 -122 -168.5 -189.5t-190.5 -75.5q-19 -2 -37 -2q-78 0 -152 28q-92 34 -173 106q-198 180 -198 353v17zM1333 807q173 -59 303 -86q78 172 205 451t137 301q-10 2 -20 2q-50 -1 -114 -43q-76 -50 -163.5 -149.5t-171 -214.5 t-176.5 -261z" />
<glyph unicode="B" horiz-adv-x="1435" d="M6 906q-4 32 -5 64q1 73 25 138q34 92 107 172t174 136t224.5 88t252.5 32q161 0 300 -54q140 -54 226 -158q84 -100 83 -225v-9q-3 -220 -207 -308q76 -41 127 -104q51 -64 73 -134q19 -62 20 -129q0 -9 -1 -19q-3 -78 -30 -150.5t-80 -137t-124 -110.5t-169 -68 q-70 -16 -148 -17q-31 0 -63 3q-58 5 -104.5 26t-73.5 51.5t-41 65.5q-11 30 -11 60q1 6 1 11q2 36 20 67q11 -96 103 -134q45 -19 95 -19q53 0 111 21q125 44 188 159q28 52 39 114q5 28 5 56q-1 36 -9 71q-14 61 -56 114.5t-124.5 89t-196.5 42.5h-6q-153 -351 -215 -523 q-55 -164 -57 -192q-69 4 -122 33t-77 83q-11 24 -11 51q0 36 17 79q33 83 140.5 327.5t198.5 448.5l91 203l217 -103q-50 -110 -118 -260q77 3 141 17t121.5 42t91 77.5t35.5 117.5v9q0 127 -114 209q-118 85 -296 85q-100 0 -191 -31.5t-158 -83t-124 -118t-95.5 -136.5 t-65 -139.5t-38.5 -125t-12 -93.5q-70 108 -84 218z" />
<glyph unicode="C" horiz-adv-x="1116" d="M0 404q3 86 18 166t47.5 163t68 154t79.5 140t82 120.5t76 95.5q254 292 516 293q128 0 258 -70q194 -104 218 -259q3 -21 3 -41q0 -96 -70 -183q-76 -94 -187 -120q-34 -8 -66 -8q-96 0 -173 71h4q74 0 173 76q106 80 146 174q18 41 18 76q0 69 -70 114q-16 10 -35 18 q-28 8 -58 8q-189 0 -448 -309q-35 -42 -68 -85.5t-70 -101t-66.5 -114t-55.5 -124.5q-25 -68 -38 -132q-14 -67 -13 -139q0 -69 16 -133q28 -112 111.5 -163.5t199.5 -51.5q97 0 185 18.5t151.5 47.5t118 64.5t90 71t60.5 64.5t36 47l11 19l53 -29q-4 -9 -12.5 -24 t-39.5 -59t-68.5 -84t-101.5 -88.5t-136 -83.5t-174 -59t-214 -24q-241 0 -379 87t-176 233q-20 69 -20 145v19z" />
<glyph unicode="D" horiz-adv-x="1456" d="M6 906q-4 32 -5 64q1 73 25 138q34 92 107 172t174 136t224.5 88t252.5 32q242 0 402 -87.5t233 -234.5q54 -107 72 -230q11 -74 11 -142q0 -45 -5 -88q-12 -107 -43.5 -214.5t-67 -185t-75.5 -141.5q-140 -224 -357 -279q-63 -16 -123 -16q-91 0 -176 36 q-105 45 -141 122q-12 27 -12 54v11q-39 -109 -43 -145q-69 4 -122 33t-77 83q-11 24 -11 51q0 36 17 79q33 83 140.5 327.5t198.5 448.5l91 203l217 -103q-291 -637 -391 -915q9 -84 79 -126q45 -27 97 -28q49 0 106 25q150 65 279 280q37 63 67 125t58.5 152.5t37.5 175.5 q3 31 3 63q0 58 -10 122q-16 100 -63 192q-53 100 -154 165.5t-248 65.5q-100 0 -191 -31.5t-158 -83t-124 -118t-95.5 -136.5t-65 -139.5t-38.5 -125t-12 -93.5q-70 108 -84 218z" />
<glyph unicode="E" horiz-adv-x="1095" d="M2 280q2 68 29.5 141t78 139t122 123t155.5 95q-126 87 -127 250q0 150 103 294q107 150 271 209q86 31 173 32q139 0 280 -80q145 -82 150 -228v-8q0 -116 -84 -220q-82 -102 -193 -128q-29 -7 -57 -7q-90 0 -164 69h3q78 0 180 87q99 86 137 181q16 40 16 72 q0 59 -55 88l-8 4q-51 24 -108 24q-84 0 -179 -53q-121 -67 -201 -186q-66 -98 -66 -177q0 -21 5 -41q25 -110 193 -117q12 -1 24 -1q0 -8 -0.5 -21t-5 -46.5t-12.5 -60.5t-26 -51t-42 -28q-160 -37 -253 -160q-70 -94 -71 -191q0 -13 2 -27q12 -114 116 -167 q69 -35 169 -35q97 0 185 18.5t151.5 47.5t118.5 64.5t90.5 71t60.5 64.5t36 47l11 19l54 -27q-4 -9 -12.5 -24t-40 -59t-69 -84t-101.5 -89t-136 -84t-173.5 -59t-213.5 -24q-135 0 -237.5 28t-161.5 74.5t-89 109.5q-28 58 -29 121q1 5 1 10z" />
<glyph unicode="F" horiz-adv-x="911" d="M2 1227q2 40 22.5 84.5t57.5 83.5q67 73 180 109q103 33 212 33q10 -1 21 -1q120 -4 220 -41q39 -10 109 -29.5t116 -32t108 -26.5q61 -13 103 -19q36 -5 70 -5h13q40 1 64 12q0 -66 -34 -109q-35 -44 -91 -58q-38 -10 -81 -9q-22 0 -44 2q-68 7 -137 34q-3 -39 -18 -86 q-8 -19 -24.5 -57t-42 -96.5t-46.5 -106.5h254l-63 -168h-262q-265 -609 -291 -745q-69 4 -122 33q-54 29 -78 83q-11 24 -10 51q0 36 17 79q33 83 137 323t192 439l87 198q20 45 23 85q1 8 1 15q-1 31 -11 54q-12 29 -34 52t-53 35.5t-65 18.5q-20 4 -42 4q-14 0 -28 -2 q-36 -4 -69 -15t-61 -32t-46 -49q-48 -83 -48 -153v-5q2 -72 53 -120.5t132 -49.5q-39 -35 -81.5 -52.5t-81 -17.5t-75.5 12t-65.5 37t-50.5 57q-23 31 -31 71q-7 31 -6 62q-1 9 0 18z" />
<glyph unicode="G" horiz-adv-x="1265" d="M2 403v14q0 78 16 151q17 80 48 163.5t68.5 154.5t82.5 140.5t84 120.5t78 96q252 292 516 292q127 0 258 -69q194 -104 217 -259q3 -20 3 -40q0 -97 -71 -185q-76 -95 -188 -120q-33 -8 -65 -8q-96 0 -172 72h4q74 0 174 77q106 81 145 175q17 41 17 75q0 71 -72 115 q-14 9 -31 16q-36 10 -74 10q-2 1 -3 1q-38 0 -90 -15q-54 -14 -110 -44.5t-125.5 -90t-140.5 -143.5q-35 -42 -67.5 -85.5t-69.5 -101t-66.5 -114.5t-54.5 -124.5t-38 -132t-13 -135.5t17 -137q17 -68 48.5 -117.5t74.5 -75.5t94 -31q9 -1 18 -1q43 0 92 21 q59 24 118.5 71.5t122.5 130t120 191.5q11 26 31 70t26 59q-6 0 -10 2q-92 23 -172 26q-19 1 -36 1q-56 0 -94 -9q-49 -11 -84.5 -26t-49.5 -28l-15 -13q0 3 -0.5 8t1 20t5 29.5t12.5 34t22 36t35.5 33t50.5 27t69 15.5q26 3 56 3q17 0 36 -1q52 -4 117 -22.5t167 -54.5 t162 -55l-34 -84q-89 -215 -136 -344q-56 -151 -59 -192q-87 5 -148 49.5t-61 118.5q-91 -105 -185 -167t-177 -77q-39 -7 -78 -7q-41 0 -80 8q-77 16 -137.5 62t-105 112t-68.5 145q-23 77 -25 163z" />
<glyph unicode="H" horiz-adv-x="1286" d="M2 1180q-2 13 -3 27q-1 39 15 81q20 58 68 107q118 125 344 141q31 2 60 3q187 0 320 -90q106 -72 106 -178q0 -48 -21 -102q-79 -184 -176 -405h356l332 747l217 -102q-430 -954 -524 -1221q-56 -168 -58 -192q-69 4 -121.5 33t-76.5 83q-11 24 -11 51q0 36 17 79 q89 212 151 354h-354q-201 -470 -227 -600q-69 4 -122 33q-54 29 -78 83q-11 24 -10 51q0 36 17 79q33 83 137.5 323t192.5 439l88 198q21 45 23 85v13q0 32 -10 56q-12 29 -34.5 52t-53.5 35.5t-65 18.5q-20 4 -42 4q-15 0 -29 -2q-36 -4 -68.5 -15t-61 -32t-46.5 -49 q-48 -82 -48 -152v-6q2 -72 53.5 -121t131.5 -51q-49 -44 -104 -60q-32 -9 -61 -9q-20 1 -40 5q-46 12 -88 39t-65 72t-31 95z" />
<glyph unicode="I" horiz-adv-x="645" d="M2 1180q-2 13 -3 27q-1 39 15 81q20 58 68 107q118 125 344 141q31 2 60 3q187 0 320 -90q106 -72 106 -178q0 -48 -21 -102q-15 -39 -135.5 -313.5t-221.5 -522t-118 -337.5q-69 4 -122 33q-54 29 -78 83q-11 24 -10 51q0 36 17 79q33 83 137.5 323t192.5 439l88 198 q21 45 23 85v13q0 32 -10 56q-12 29 -34.5 52t-53.5 35.5t-65 18.5q-20 4 -42 4q-15 0 -29 -2q-36 -4 -68.5 -15t-61 -32t-46.5 -49q-48 -82 -48 -152v-6q2 -72 53.5 -121t131.5 -51q-49 -44 -104 -60q-32 -9 -61 -9q-20 1 -40 5q-46 12 -88 39t-65 72t-31 95z" />
<glyph unicode="J" horiz-adv-x="987" d="M2 -334q5 40 31 77t72 68t104 46q71 20 172 20q52 120 287.5 641t306.5 684q20 45 23 85q1 8 1 15q0 31 -11 54q-12 28 -34 51t-53 35.5t-65 19.5q-21 3 -42 3q-14 0 -29 -1q-36 -5 -69 -15.5t-61.5 -31.5t-46.5 -49q-48 -82 -48 -152v-6q3 -73 54 -121.5t131 -50.5 q-49 -44 -104 -60q-32 -9 -61 -9q-21 0 -40 5q-47 11 -88 38.5t-64.5 72.5t-31.5 95q-2 14 -2 28q0 38 15 80q20 57 67 107q100 107 296 133q54 7 105 7q123 0 233 -41q150 -56 187 -163q11 -30 11 -62q0 -48 -23 -100q-59 -139 -291 -652.5t-299 -680.5q64 -15 193.5 -53 t195.5 -55q92 -23 172 -26q19 -1 36 -1q56 0 94 9q49 11 84.5 26t49.5 28l15 13q0 -3 0.5 -8t-1 -20t-5 -29.5t-12.5 -34t-22 -36t-35.5 -33t-50.5 -27t-69 -15.5q-26 -3 -56 -3q-17 0 -36 1q-79 5 -280.5 75t-309.5 97q-16 -38 -36.5 -72.5t-57 -73.5t-79.5 -65t-106 -39 q-35 -6 -73 -6q-30 0 -62 4q-68 9 -112 36t-60 62q-12 26 -12 55q0 10 2 21zM104 -331q11 -40 80 -50q8 -1 15 -1q41 0 71 38q36 44 74 133q-1 0 -4.5 1t-5.5 1q-20 2 -38 2q-93 0 -153 -46q-41 -31 -41 -64q0 -7 2 -14z" />
<glyph unicode="K" horiz-adv-x="1286" d="M2 1180q-2 13 -3 27q-1 39 15 81q20 58 68 107q118 125 344 141q31 2 60 3q187 0 320 -90q106 -72 106 -178q0 -48 -21 -102q-13 -31 -42.5 -99.5t-77.5 -178t-83 -191.5l750 648l223 -2l-750 -635q97 49 148 49q23 0 37 -10l6 -4q5 -5 12.5 -11.5t18.5 -16.5t22.5 -21 t23.5 -23.5t22.5 -25.5t19.5 -27t13.5 -26t6 -24t-3.5 -22q-81 -173 -147 -361q-5 -17 -5 -31q1 -23 13 -38t41 -15q17 0 39 5q58 14 123 83t124 158l52 -24q-187 -330 -424 -330q-54 0 -101.5 15.5t-82 46.5t-43.5 77q-3 13 -3 27q0 36 17 80l116 274q5 10 5 19 q0 22 -31 33q-20 7 -44 7q-47 0 -110 -27q-136 -58 -239 -206q-107 -270 -121 -346q-69 4 -122 33q-54 29 -78 83q-11 24 -10 51q0 36 17 79q33 83 137.5 323t192.5 439l88 198q21 45 23 85v13q0 32 -10 56q-12 29 -34.5 52t-53.5 35.5t-65 18.5q-20 4 -42 4q-15 0 -29 -2 q-36 -4 -68.5 -15t-61 -32t-46.5 -49q-48 -82 -48 -152v-6q2 -72 53.5 -121t131.5 -51q-49 -44 -104 -60q-32 -9 -61 -9q-20 1 -40 5q-46 12 -88 39t-65 72t-31 95z" />
<glyph unicode="L" horiz-adv-x="704" d="M2 -268q-4 29 3 62.5t25 68.5t53.5 66.5t82.5 50.5q56 136 185.5 441.5t230.5 542.5l102 238q20 45 22 85q0 7 1 13q-1 32 -11 56q-12 29 -34 52t-53 35.5t-65 18.5q-20 4 -42 4q-14 0 -28 -2q-36 -4 -69 -15t-61.5 -32t-46.5 -49q-48 -82 -48 -152q1 -2 1 -6 q2 -72 53 -121t131 -51q-49 -44 -104 -60q-32 -9 -61 -9q-21 1 -41 5q-46 12 -87 39t-65 72q-22 45 -30 95q-2 14 -3 28q0 38 15 80q20 58 67 107q117 125 343 141q31 2 61 3q187 0 320 -90q106 -72 106 -178q0 -48 -21 -102q-16 -42 -214.5 -507.5t-275.5 -665.5q9 0 11 -2 q95 -18 189.5 -54.5t170 -76t149 -77.5t154 -66t158.5 -35q28 -3 54 -3q88 0 156 29q88 37 113 94v-18t-4.5 -44t-13 -63t-27.5 -66.5t-46 -63t-71 -44.5t-100 -18q-79 0 -166 31t-169.5 78.5t-165.5 98t-183.5 98t-193.5 69.5q-97 24 -175 24q-2 -1 -4 -1q-80 0 -123 -11.5 t-79 -42t-46 -46.5t-25 -45q-4 -6 -5 -9z" />
<glyph unicode="M" horiz-adv-x="1708" d="M6 906q-4 32 -5 64q1 73 25 138q34 92 107 172t174 136t224.5 88t252.5 32q83 0 166 -14t164 -46t142.5 -78t99.5 -116q36 -66 35 -144v-8q110 165 248 200q33 9 64 8q70 0 124 -44q74 -62 74 -177v-17q-3 -78 -43 -164q-215 -459 -314 -748q-57 -161 -59 -192 q-69 4 -122 33t-77 83q-11 24 -11 51q0 36 17 79q137 344 334 776q35 79 35 127q0 30 -14 47q-13 15 -34 15q-27 0 -68 -26q-101 -64 -197 -235q-17 -30 -33 -63q-9 -18 -29 -64q-169 -370 -260 -631q-52 -148 -59 -192q-109 6 -171 72q-38 40 -38 95q0 36 16 79 q172 422 334 776q33 72 39 132q1 15 1 29q0 43 -14 75q-19 42 -53.5 74t-85 50.5t-105.5 27.5t-116 9q-100 0 -191 -31.5t-158 -83t-124 -118t-95.5 -136.5t-65 -139.5t-38.5 -125t-12 -93.5q-70 108 -84 218zM260 112q-11 24 -11 51q0 36 17 79q33 83 150.5 353.5 t219.5 500.5l101 229l217 -104q-344 -766 -438 -1033q-55 -164 -57 -192q-69 4 -122 33t-77 83z" />
<glyph unicode="N" horiz-adv-x="1196" d="M6 906q-4 32 -5 64q1 73 25 138q34 92 107 172t174 136t224.5 88t252.5 32q70 0 141.5 -10.5t142.5 -33.5t131 -56t105 -82.5t68 -109.5q17 -45 17 -101q1 -18 -1 -38q-8 -79 -49 -169q-202 -432 -313 -748q-52 -148 -59 -192q-109 6 -171 72q-38 40 -38 95q0 36 16 79 q172 422 334 776q33 72 39 132q1 15 1 29q0 43 -14 75q-19 42 -53.5 74t-85 50.5t-105.5 27.5t-116 9q-100 0 -191 -31.5t-158 -83t-124 -118t-95.5 -136.5t-65 -139.5t-38.5 -125t-12 -93.5q-70 108 -84 218zM260 112q-11 24 -11 51q0 36 17 79q33 83 150.5 353.5 t219.5 500.5l101 229l217 -104q-344 -766 -438 -1033q-55 -164 -57 -192q-69 4 -122 33t-77 83z" />
<glyph unicode="O" horiz-adv-x="1429" d="M2 906q0 10 -1 21q0 98 39 181q43 92 123.5 172t186.5 136t232.5 88t255.5 32q242 0 393.5 -87t210.5 -235q48 -119 52 -264v-26q0 -132 -32 -260q-35 -142 -106.5 -276.5t-166.5 -237t-220.5 -164.5t-259.5 -62q-115 0 -200.5 32.5t-134.5 91.5q-50 58 -74 135 q-21 67 -21 147q1 10 1 22q4 92 26.5 190.5t64.5 200.5q67 160 179 307t236 253l77 -7q142 -21 142 -74q0 -26 -38 -61q-114 -98 -208.5 -224t-152.5 -261q-64 -155 -77 -299q-3 -37 -3 -69q0 -98 29 -163q39 -88 119 -88q93 0 183 56.5t159 148.5t122 212t79 244 q22 105 22 210q-1 18 -1 37q-4 124 -42 219q-41 99 -137 165t-244 66q-100 0 -193.5 -31.5t-165.5 -83t-135.5 -118t-107.5 -136.5t-77 -139.5t-50 -125t-20 -93.5q-60 108 -64 218z" />
<glyph unicode="P" horiz-adv-x="1218" d="M6 906q-4 32 -5 64q1 73 25 138q34 92 107 172t174 136t224.5 88t252.5 32q151 0 278.5 -44t211.5 -125t112 -197q11 -44 11 -91q0 -79 -29 -168q-34 -104 -98.5 -175t-158.5 -110t-200 -55t-247 -18q-104 -245 -148 -365q-55 -164 -57 -192q-69 4 -122 33t-77 83 q-11 24 -11 51q0 36 17 79q33 83 140.5 327.5t198.5 448.5l91 203l217 -103q-107 -231 -213 -475q104 4 191 40t161 118t111 205q16 53 16 101q-1 52 -19 101q-36 93 -137 150t-249 57q-100 0 -191 -31.5t-158 -83t-124 -118t-95.5 -136.5t-65 -139.5t-38.5 -125t-12 -93.5 q-70 108 -84 218z" />
<glyph unicode="Q" horiz-adv-x="1449" d="M2 906q-1 11 -1 21q0 98 39 181q43 92 123.5 172t186.5 136t232.5 88t255.5 32q242 0 393.5 -87t210.5 -235q42 -105 50 -232q2 -30 2 -61q0 -96 -19 -192q-25 -127 -75.5 -249t-128 -228.5t-171.5 -181.5q151 -148 309 -197q-73 -47 -135 -63q-45 -11 -79 -11 q-14 0 -27 1q-42 7 -81.5 38.5t-63.5 64t-54 83.5q-127 -62 -260 -62q-115 0 -200.5 32.5t-134.5 91t-74 135.5q-21 67 -21 147q0 11 1 22q3 93 26 191t65 200q67 160 179 307t236 253l77 -7q142 -21 142 -74q0 -26 -38 -61q-114 -98 -208.5 -224t-152.5 -261 q-64 -155 -77 -299q-3 -36 -3 -69q0 -97 29 -163q39 -88 119 -88q108 0 207 74q-7 7 -13 16q-32 36 -74 46q-11 3 -22 3q-28 0 -50 -18q-32 -25 -32 -80q-22 53 -22 94v9q3 45 30 70.5t64 34.5q14 4 31 4q23 0 49 -8q43 -13 78 -46q16 -14 49 -47q81 87 143.5 212.5 t95.5 258.5q31 126 31 255q0 6 -1 11q-1 135 -42 238q-41 99 -137 165t-244 66q-100 0 -193.5 -31.5t-165.5 -83t-135.5 -118t-107.5 -136.5t-77 -139.5t-50 -125t-20 -93.5q-60 109 -64 218z" />
<glyph unicode="R" horiz-adv-x="1218" d="M6 906q-4 32 -5 64q1 73 25 138q34 92 107 172t174 136t224.5 88t252.5 32q151 0 278.5 -44t211.5 -125t112 -197q11 -44 11 -91q0 -79 -29 -168q-73 -222 -301 -303q93 -90 93 -138q0 -9 -3 -17q-36 -77 -102 -265q-5 -17 -4 -31q-1 -23 11 -38t42 -15q17 0 39 5 q106 25 248 241l51 -24q-188 -330 -424 -330q-54 0 -101.5 15.5t-82 46.5t-44.5 77q-3 14 -2 29q0 35 15 78q19 48 42 101.5t37 82.5l13 29q5 11 5 21q0 24 -29 43q-29 18 -69 18q-33 0 -72 -12q-51 -16 -99 -50q-74 -176 -115 -287q-55 -164 -57 -192q-69 4 -122 33t-77 83 q-11 24 -11 51q0 36 17 79q33 83 140.5 327.5t198.5 448.5l91 203l217 -103q-107 -231 -213 -475q104 4 191 40t161 118t111 205q16 53 16 101q-1 52 -19 101q-36 93 -137 150t-249 57q-100 0 -191 -31.5t-158 -83t-124 -118t-95.5 -136.5t-65 -139.5t-38.5 -125t-12 -93.5 q-70 108 -84 218z" />
<glyph unicode="S" horiz-adv-x="1024" d="M10 311q29 121 118 195q71 59 149 59q35 0 72 -12q46 -15 89 -49q-12 1 -23 1q-89 0 -142 -76q-41 -60 -41 -134q0 -17 2 -35q12 -99 89 -140q38 -21 87 -22q106 0 186 69t80 177q0 49 -20.5 100t-52 94.5t-68.5 95t-70.5 102t-57.5 116.5t-29 137q-1 15 -1 32 q0 59 14 132q38 177 170.5 280t321.5 103q258 0 353 -132q45 -62 45 -137q0 -37 -11 -76q-29 -105 -115 -167q-66 -47 -138 -47q-43 0 -88 17t-87 50q12 -1 23 -1q90 0 145 77q44 62 44 138q0 13 -1 27q-10 93 -81 130q-34 17 -78 17h-5q-98 -1 -161.5 -68.5t-84.5 -159.5 q-9 -37 -9 -74q0 -18 2 -37q6 -55 26.5 -99t50.5 -91.5t63 -88.5t66 -90.5t59.5 -97t43 -107.5t16.5 -122q0 -93 -41 -179t-113 -151t-179 -104t-231 -39q-254 0 -351 143q-47 71 -47 157q0 42 11 87z" />
<glyph unicode="T" horiz-adv-x="663" d="M3 1226q3 40 23.5 85t57.5 84q67 73 185 107q111 32 240 33q8 0 15 -1q74 -1 222 -32q150 -30 334 -60q173 -28 331 -27h21q85 1 143.5 34t71.5 75q2 -3 4 -9t6.5 -24.5t5 -37t-6 -43.5t-20 -47.5t-42.5 -45.5t-70 -41q-60 -26 -120 -33q-23 -3 -46 -3q-38 0 -76 7 q-62 11 -115 26t-132.5 39t-141.5 38q20 -39 20 -84.5t-20 -96.5q-15 -39 -135.5 -313.5t-221.5 -522t-118 -337.5q-69 4 -122 33q-54 29 -78 83q-11 24 -10 51q0 36 17 79q33 83 137.5 323t192.5 439l88 198q21 45 23 85v13q0 32 -10 56q-12 29 -34.5 52t-53.5 35.5 t-65 18.5q-20 4 -42 4q-15 0 -29 -2q-36 -4 -68.5 -15t-61 -32t-46.5 -49q-48 -82 -48 -152v-6q2 -72 53.5 -121t131.5 -51q-39 -34 -81 -52q-41 -17 -79 -17q-1 1 -3 1q-38 0 -75 12t-65 37t-50 57q-22 30 -31 70q-7 30 -7 60q0 10 1 20z" />
<glyph unicode="U" horiz-adv-x="1216" d="M2 1180q-2 13 -3 27q-1 39 15 81q20 58 68 107q118 125 344 141q31 2 60 3q187 0 320 -90q106 -72 106 -178q0 -48 -21 -102q-18 -45 -173.5 -363t-228.5 -487q-15 -36 -15 -68q0 -39 23 -70q32 -43 86 -43q8 0 16 1q85 10 147 116q10 16 18 34q48 116 167.5 380 t214.5 471l95 206l217 -103q-371 -788 -463 -1055q-5 -18 -5 -33q0 -23 12 -38q12 -16 41 -16q16 0 38 5q58 14 123.5 83.5t124.5 158.5l51 -24q-188 -330 -422 -330q-77 0 -140.5 32.5t-82.5 90.5q-121 -121 -342 -121q-105 7 -159 72q-30 36 -30 86q0 40 19 88 q33 83 137.5 323t192.5 439l88 198q21 45 23 85v13q0 32 -10 56q-12 29 -34.5 52t-53.5 35.5t-65 18.5q-20 4 -42 4q-15 0 -29 -2q-36 -4 -68.5 -15t-61 -32t-46.5 -49q-48 -82 -48 -152v-6q2 -72 53.5 -121t131.5 -51q-49 -44 -104 -60q-32 -9 -61 -9q-20 1 -40 5 q-46 12 -88 39t-65 72t-31 95z" />
<glyph unicode="V" horiz-adv-x="1153" d="M2 1181q-2 13 -3 27q-1 38 15 80q20 58 68 109q44 47 107 79t132 46q65 14 134 14h9q74 -1 142.5 -17t127 -47.5t98.5 -73.5t57 -102q9 -32 9 -66q0 -30 -7 -61q-17 -76 -117 -421q-103 -356 -103 -452v-8q4 -44 31 -36q27 60 162 334t256 518l121 244l217 -103 l-686 -1245q-47 0 -89.5 7.5t-84 25t-71 46t-51.5 70.5q-22 43 -24 99v15q0 51 11 114q22 105 90 409.5t88 415.5q5 32 5 61q0 37 -8 69q-16 57 -50 88q-34 30 -80 44q-30 9 -60 9q-17 -1 -33 -3q-47 -8 -90.5 -34t-70.5 -68q-48 -82 -48 -152v-6q2 -72 53.5 -121t131.5 -51 q-49 -44 -104 -60q-32 -9 -61 -9q-20 1 -40 5q-46 12 -88 39t-65 72.5t-31 95.5z" />
<glyph unicode="W" horiz-adv-x="1708" d="M4 1181q-2 13 -3 27q-1 38 15 80q20 58 68 109q44 47 107 79t132 46q65 14 134 14h9q74 -1 142.5 -17t127 -47.5t98.5 -73.5t57 -102q9 -32 9 -66q0 -30 -7 -61q-16 -75 -116 -420q-103 -356 -103 -453v-8q2 -41 25 -38l6 2q27 60 161.5 334t255.5 518l121 244l217 -103 q-14 -65 -116 -433q-112 -405 -112 -513v-13q5 -41 30 -34q27 60 161.5 334t255.5 518l121 244l217 -103l-686 -1245q-47 0 -89.5 7.5t-84 25t-71 46t-51.5 70.5q-22 43 -24 99v15q0 51 11 114q15 75 39 180t59 249t51 214l-503 -1020q-56 0 -96.5 11t-70 37.5t-43.5 69.5 q-13 39 -13 95q1 7 1 13q2 64 19 151q22 105 90 409.5t88 415.5q5 32 5 61q0 37 -8 69q-16 57 -50 88q-34 30 -80 44q-30 9 -60 9q-17 -1 -33 -3q-47 -8 -90.5 -34t-70.5 -68q-48 -82 -48 -152v-6q2 -72 53.5 -121t131.5 -51q-49 -44 -105 -60q-32 -9 -61 -9q-21 1 -41 5 q-46 12 -87.5 39t-64 72.5t-30.5 95.5z" />
<glyph unicode="X" horiz-adv-x="1282" d="M19 1325q49 128 205 180q90 31 210 31q48 0 79.5 -1t70 -3.5t64 -8t55.5 -14.5t50.5 -22.5t43.5 -32.5t39.5 -44.5t34 -58t31.5 -73t28 -90.5q6 -20 20 -75t19 -75q116 136 118 138q61 70 114 121.5t98.5 88.5t94.5 61.5t88.5 38.5t94.5 20.5t99 8t114 1.5h6 q-88 -38 -197.5 -131.5t-177.5 -170.5q-83 -97 -387 -442q166 -644 262 -747q-52 -17 -106 -21q-15 -1 -30 -1q-40 -1 -76 7q-50 10 -89 43.5t-55 85.5q-1 2 -44.5 145t-72.5 246q-341 -382 -342 -383q-78 -85 -164 -119q-61 -24 -115 -24q-23 0 -44 4q-73 14 -135 64 q109 10 325 231q203 239 404 477q-88 300 -129 447q-11 39 -17.5 61t-23.5 60.5t-35 60t-47.5 38.5t-65.5 17q-141 -1 -198 -102q-28 -51 -27 -108q0 -35 10 -73q27 -93 101 -131q37 -19 79 -19q10 0 21 1q-94 -69 -180 -69q-43 0 -84 17q-87 36 -130 131q-25 58 -25 116 q0 49 18 98z" />
<glyph unicode="Y" horiz-adv-x="1155" d="M3 1230q3 41 23.5 85t57.5 84q99 106 297 131q53 7 103 7q127 0 239 -42q151 -56 187 -161q9 -28 9 -58q0 -50 -26 -105q-49 -98 -182 -405q-17 -40 -17 -73q0 -35 20 -63q26 -36 69 -36q12 0 24 2q77 15 135 117l365 800l217 -102q-477 -1041 -631 -1417q93 -19 187 -56 t168.5 -76t148 -77t153.5 -65.5t158 -34.5q28 -3 54 -3q87 0 156 29q89 37 114 94v-18t-4.5 -44t-13 -63t-28 -66.5t-46.5 -63t-71 -44.5t-100 -18q-79 0 -166 31t-169.5 78.5t-165.5 98t-183.5 98t-193.5 69.5q-71 17 -132 22q-36 3 -65 3q-21 0 -38 -2q-42 -3 -78.5 -17 t-56.5 -27t-39.5 -35t-26.5 -33.5t-17 -30.5q-1 -3 -2 -4t-2 -3l-2 -4q-1 10 -1 21q0 33 11 69q15 48 61.5 96.5t117.5 71.5q31 76 233 528q-105 -61 -262 -61q-106 7 -160 71q-29 35 -29 84q0 40 19 88q33 84 88 210t94 210l39 84q20 45 23 85v13q0 32 -10 56 q-13 29 -35 52t-53 35.5t-65 18.5q-20 4 -42 4q-14 0 -29 -2q-36 -4 -68.5 -15t-61 -32t-46.5 -49q-48 -82 -48 -151v-7q3 -72 54 -120t131 -50q-39 -34 -81 -52t-79 -18h-3q-38 1 -75 13t-65 37t-50 56.5t-31 71.5q-7 30 -7 60q0 10 1 20z" />
<glyph unicode="Z" horiz-adv-x="1558" d="M0 0q2 4 5 12t16 30.5t29.5 43.5t46.5 48.5t65 49.5l1085 936q-33 3 -93 10t-96 10.5t-92 5.5q-25 1 -47 2q-26 0 -47 -2q-38 -3 -88.5 -12t-90 -27t-83 -47t-82.5 -69q47 120 107 201.5t126 121.5t139 58q66 16 136 16q8 0 16 -1q80 -2 160 -11q81 -8 168 -16 q69 -6 134 -6h34q81 2 168.5 27t163.5 75q-66 -130 -154 -211h3l-1149 -991q106 -9 277 -42t235 -38q11 -1 21 -1q85 1 133 65q34 46 34 93q0 28 -12 57q-32 78 -140 81q114 48 196 48h12q86 -4 120 -57q32 -50 32 -113v-8q-2 -68 -53 -144.5t-137 -126.5q-62 -36 -144 -48 q-54 -8 -111 -9q-29 1 -59 3q-88 6 -186 19t-201 25t-203 16q-17 1 -33 0q-84 0 -170 -14q-104 -18 -191 -60z" />
<glyph unicode="[" d="M201 -387l923 2075h351l-76 -172h-172l-770 -1731h172l-78 -172h-350z" />
<glyph unicode="\" horiz-adv-x="1210" d="M205 1688h180l743 -2075h-180z" />
<glyph unicode="]" horiz-adv-x="1286" d="M102 -387l78 172h170l770 1731h-170l76 172h350l-923 -2075h-351z" />
<glyph unicode="^" horiz-adv-x="917" d="M274 1020l576 264l100 -448q-5 3 -14.5 9t-36 29t-49.5 51.5t-49.5 79t-42.5 109.5q-69 -44 -144 -70t-133 -31.5t-106.5 -4.5t-74.5 6z" />
<glyph unicode="_" horiz-adv-x="1544" d="M205 -51l47 96h1278l-47 -96h-1278z" />
<glyph unicode="`" horiz-adv-x="352" d="M0 946q81 17 119.5 74.5t15.5 109.5q-43 6 -71.5 38.5t-28.5 76.5q0 47 34 81t81 34q74 0 105 -79q31 -80 0 -177q-35 -107 -124 -145q-58 -26 -131 -13z" />
<glyph unicode="a" d="M66 303q15 143 108 330q141 277 348 381q20 9 37 10.5t24 -1t25 -9.5l221 -105q14 -7 14 -28q1 -21 -15 -59q-30 -74 -118.5 -153t-203.5 -98q84 55 140 137q49 72 49 136q0 8 -1 16q-37 -21 -81 -56t-97.5 -94t-96.5 -128t-74 -163.5t-36 -193.5q0 -8 -1 -16 q0 -51 18 -79q14 -22 48 -21q15 0 34 4q92 22 221 202q44 104 123 281.5t136 303.5l58 126l219 -104q-219 -460 -313 -727q-5 -18 -5 -33q-1 -23 11 -38q12 -16 42 -16q16 0 38 5q59 14 126 84.5t122 156.5l53 -24q-187 -330 -424 -330q-88 0 -155 40.5t-74 111.5 q-129 -150 -264 -150q-139 0 -205 79q-54 64 -54 171q0 25 3 51z" />
<glyph unicode="b" horiz-adv-x="948" d="M13 195q-1 8 -1 17q0 63 33 146l451 996l217 -103q-103 -218 -209 -456q141 193 188 219q9 6 18.5 8t15.5 3t16.5 -2t13.5 -4t14 -6l12 -5q107 -51 154 -72q50 -24 52 -118v-10q0 -90 -32 -198q-34 -114 -88 -219q-104 -200 -250 -295.5t-311 -95.5q-78 0 -140 20 t-105.5 63.5t-48.5 111.5zM307 115q7 -2 16 -2q23 0 54 16q69 36 130.5 103t102 143.5t71 158.5t44 150.5t13.5 117t-15 60.5q-5 4 -12 4q-25 0 -79 -44q-70 -56 -154.5 -166.5t-133.5 -225.5q-71 -171 -72 -250q1 -55 35 -65z" />
<glyph unicode="c" horiz-adv-x="765" d="M64 308q2 72 32 157q36 107 90 198.5t106 150t113.5 107t102.5 72t82 41.5q19 8 42 8q25 0 54 -10q26 -11 82 -40.5t98 -53.5l43 -23q-3 -6 -8 -17t-24.5 -42.5t-43 -60.5t-63 -65t-84.5 -62.5t-108.5 -47t-133.5 -24.5q250 145 293 244q-48 -11 -104.5 -46.5t-112 -90.5 t-103.5 -135.5t-75 -170.5q-19 -67 -19 -118q0 -91 61 -132q40 -27 96 -27q50 0 112 21q135 45 237 158q27 30 48 63l49 -30q-80 -150 -223 -241t-326 -91q-40 0 -81.5 10t-85 31.5t-76.5 59t-53 86.5q-18 44 -18 105q1 8 1 16z" />
<glyph unicode="d" horiz-adv-x="1062" d="M66 303q15 143 108 330q141 277 348 381q20 9 37 10.5t24 -1t25 -9.5l221 -105q14 -7 14 -28q1 -21 -15 -59q-30 -74 -118.5 -153t-203.5 -98q84 55 140 137q49 72 49 136q0 8 -1 16q-37 -21 -81 -56t-97.5 -94t-96.5 -128t-74 -163.5t-36 -193.5q0 -8 -1 -16 q0 -51 18 -79q14 -22 48 -21q15 0 34 4q93 23 217 198q53 123 170.5 383.5t208.5 459.5l92 200l217 -103q-369 -789 -463 -1056q-5 -18 -5 -32q1 -24 13 -39q12 -16 42 -16q17 0 38 5q106 25 248 241l51 -24q-187 -330 -424 -330q-87 0 -153.5 40.5t-75.5 111.5 q-129 -150 -262 -150q-139 0 -205 79q-54 64 -54 171q0 25 3 51z" />
<glyph unicode="e" horiz-adv-x="804" d="M65 280q-1 12 -1 26q0 70 32 159q37 108 92 200t108.5 151t114.5 107t103 71t82 40q19 9 41 9q24 0 51 -11q25 -11 80.5 -40.5t97.5 -53.5l43 -23q0 -10 -1 -27t-12.5 -68t-31.5 -98.5t-63 -108.5t-101 -109.5t-153.5 -90.5t-212.5 -61q-8 -41 -8 -75q0 -100 73 -139 q38 -20 87 -20q57 0 127 27q136 53 232 170q19 23 34 47l49 -30q-87 -159 -225.5 -245.5t-323.5 -86.5q-47 0 -96.5 14.5t-100.5 47.5t-80.5 86.5t-36.5 131.5zM367 465q96 35 175.5 92t123 111.5t63.5 101.5q13 31 13 52q0 10 -3 18q-95 -21 -203 -123t-169 -252z" />
<glyph unicode="f" horiz-adv-x="598" d="M-478 -334q6 40 32 77t72 68t104 46q73 20 151 20h21q74 172 338 754h-105l39 82h102l152 334q14 38 31 72.5t54 81t81 78t114 49.5q49 13 104 13q23 0 48 -2q90 -9 116 -84q9 -25 9 -52q0 -51 -32 -107q-58 -100 -180 -138q-56 -17 -120 -18q-9 -19 -44 -96t-60 -131 h106l-39 -82h-106q-258 -558 -352 -793q56 -14 185 -52.5t204 -57.5q92 -23 172 -26q17 -1 32 -1q58 0 97 9q49 12 84.5 27.5t49.5 28.5l15 13q0 -3 0.5 -8t-1 -20.5t-5 -30t-12.5 -34t-22 -36.5t-35.5 -33t-51 -27t-70.5 -16q-25 -3 -55 -3q-17 0 -36 1q-78 5 -280 75 t-308 97q-17 -39 -37.5 -73t-57.5 -73t-80 -65t-106 -39q-35 -6 -73 -6q-30 0 -62 4q-68 9 -112 36t-60 62q-12 26 -12 55q0 10 1 21zM-375 -330q10 -40 80 -51q8 -1 15 -1q41 0 72 38q35 44 73 133q-1 0 -4 1t-4 1q-20 2 -39 2q-93 0 -153 -46q-42 -31 -42 -64q0 -6 2 -13z M700 1042q2 -2 9 -2h2q82 0 135 71q31 41 31 73q0 5 -1 10q-2 16 -16 18q-8 1 -15 1q-41 0 -71 -37q-36 -45 -74 -134z" />
<glyph unicode="g" horiz-adv-x="980" d="M12 -334q6 40 31.5 77t71.5 68t104 46q73 20 151 20h21q12 25 42.5 95t49.5 112q-96 -86 -200 -86q-140 0 -206 78q-54 64 -54 171q0 25 3 51q15 143 109 331q139 277 348 379q34 13 48.5 12t35.5 -12l224 -103q14 -7 14 -28q0 -22 -15 -59q-30 -74 -119.5 -153.5 t-205.5 -99.5q84 54 140 137q51 75 51 140q0 7 -1 14q-38 -21 -81.5 -56.5t-97 -95t-96.5 -128.5t-75 -163.5t-37 -193.5v-11q0 -55 18 -82q15 -21 47 -21q15 0 34 4q91 20 211 186l327 725l219 -102q-352 -768 -477 -1080q47 -12 178 -50.5t211 -57.5q92 -23 172 -26 q19 -1 36 -1q55 0 93 9q49 11 85 26t50 28l15 13q0 -3 0.5 -8t-1 -20.5t-5 -30t-12.5 -34.5t-22 -36.5t-35.5 -32.5t-50.5 -26.5t-69 -15.5q-24 -3 -49 -3q-21 0 -43 2q-80 4 -284 74.5t-306 95.5q-114 -257 -350 -257q-31 0 -65 5q-68 9 -112 36t-60 62q-12 26 -12 55 q0 10 1 21zM115 -330q10 -40 80 -51q8 -1 15 -1q41 0 71 37q35 44 73 134q-2 2 -8 2q-20 2 -39 2q-93 0 -153 -46q-41 -31 -41 -64q0 -6 2 -13z" />
<glyph unicode="h" horiz-adv-x="997" d="M10 170q0 27 17 76q33 84 157 361t232 512l108 235l217 -103q-96 -204 -202 -442q89 91 182.5 154t150.5 63q24 0 37 -10l5 -4q6 -5 14.5 -12t19.5 -17t23 -22t24 -25t22.5 -26.5t19 -27t13.5 -27t5 -24.5q0 -4 -4 -16q-183 -386 -265 -620q-4 -12 -4 -33q0 -53 56 -53 q125 0 284 245l52 -24q-187 -330 -424 -330q-93 0 -162.5 45.5t-69.5 124.5q0 69 254 612q4 8 4 21q0 22 -24 22q-50 0 -147.5 -81.5t-203.5 -241.5q-91 -212 -135.5 -340t-46.5 -162q-86 6 -147.5 51t-61.5 119z" />
<glyph unicode="i" horiz-adv-x="491" d="M24 111q-13 26 -13 58q0 35 16 77q33 84 119.5 279t156.5 348l70 153l219 -104q-221 -460 -313 -727q-5 -18 -4 -33q1 -23 11 -38q12 -16 41 -16q16 0 38 5q58 14 123 83t124 158l54 -24q-187 -330 -426 -330q-72 0 -130 28t-86 83zM451 1260q0 66 46 111.5t111 45.5 q66 0 113 -45.5t47 -111.5t-47 -112t-113 -46q-65 0 -111 46t-46 112z" />
<glyph unicode="j" horiz-adv-x="532" d="M-468 -330q6 40 32 77t72 68.5t104 47.5q81 20 172 20l514 1143l219 -104q-352 -768 -477 -1080q47 -12 178 -50.5t211 -57.5q92 -23 172 -26q19 -1 36 -1q55 0 93 9q49 11 85 26t51 28l14 13q0 -3 0.5 -8t-1 -20t-5 -29.5t-12.5 -34t-22 -36t-35.5 -33t-50.5 -27 t-70 -15.5q-25 -3 -55 -3q-17 0 -36 1q-63 4 -152.5 32t-213.5 70.5t-224 67.5q-115 -255 -350 -255q-32 0 -66 5q-68 9 -112 35.5t-60 60.5q-12 26 -12 55q0 10 1 21zM-365 -324q10 -41 80 -53q8 -1 15 -1q42 0 72 38q35 45 73 135h-8q-23 2 -44 2q-90 0 -148 -44 q-42 -31 -42 -64q0 -6 2 -13zM504 1260q0 66 47 111.5t113 45.5t111.5 -45.5t45.5 -111.5t-45.5 -112t-111.5 -46t-113 46t-47 112z" />
<glyph unicode="k" horiz-adv-x="1003" d="M30 117q-11 23 -10 51q0 35 17 78q33 84 157.5 361t232.5 512l108 235l217 -103q-154 -326 -287 -628l563 424l141 -68l-389 -293q137 -119 137 -179q0 -10 -4 -18q-50 -106 -116 -294q-5 -18 -4 -32q-1 -24 11 -39q12 -16 43 -16q17 0 38 5q106 25 248 241l51 -24 q-187 -330 -424 -330q-73 0 -131.5 28t-86.5 83q-13 26 -13 58q0 35 16 77l90 213q17 37 -13 41h-7q-46 0 -129 -67q-93 -76 -187 -206q-9 -27 -10 -32q-58 -167 -60 -195q-69 5 -122 34.5t-77 82.5z" />
<glyph unicode="l" horiz-adv-x="503" d="M34 111q-13 25 -13 56q0 36 18 79q33 84 157.5 361t232.5 512l108 235l217 -103q-371 -789 -463 -1056q-5 -18 -5 -33q0 -23 12 -38q12 -16 41 -16q16 0 38 5q106 25 248 241l53 -24q-188 -330 -426 -330q-72 0 -131 28t-87 83z" />
<glyph unicode="m" horiz-adv-x="1515" d="M30 117q-11 23 -10 51q0 35 17 78q33 84 120 279t157 348l71 153l217 -104q-20 -43 -51 -109q109 108 217 172q72 42 115 43q22 0 37 -12l6 -4q5 -5 12.5 -11.5t18.5 -16.5t22.5 -21t23.5 -23.5t22.5 -25.5t19.5 -27t13.5 -26t6 -24t-3.5 -22l-2 -2q108 108 216 172 q71 42 115 43q22 0 37 -12l5 -4q6 -5 13.5 -11.5t18.5 -16.5t22.5 -21t24 -23.5t22.5 -25.5t19 -26.5t14 -26t6.5 -24.5t-3.5 -22q-179 -378 -264 -620q-5 -18 -4 -33q1 -23 11 -38q12 -16 41 -16q16 0 38 5q107 24 249 241l52 -24q-188 -330 -424 -330q-73 0 -131.5 28 t-86.5 83q-13 26 -13 58q0 35 16 77q73 185 237 536q17 38 -15 42h-7q-46 0 -129 -67q-109 -90 -219 -255v2q-100 -242 -123 -309q-34 -118 -34 -178q0 -9 1 -17h-4q-73 0 -131.5 28t-86.5 83q-13 26 -13 58q0 35 16 77q62 156 235 536q17 38 -13 42q-4 1 -8 1 q-45 0 -127 -67q-110 -91 -220 -256v4q-79 -183 -123 -311q-58 -167 -60 -195q-69 5 -122 34.5t-77 82.5z" />
<glyph unicode="n" horiz-adv-x="1007" d="M30 117q-11 23 -10 51q0 35 17 78q33 84 120 279t157 348l71 153l217 -104q-20 -43 -51 -109q109 108 217 172q72 42 115 43q22 0 37 -12l6 -4q5 -5 12.5 -11.5t18.5 -16.5t22.5 -21t23.5 -23.5t22.5 -25.5t19.5 -27t13.5 -26t6 -24t-3.5 -22q-179 -378 -264 -620 q-5 -18 -4 -33q1 -23 11 -38q12 -16 41 -16q16 0 38 5q59 14 125.5 84t121.5 157l54 -24q-187 -330 -424 -330q-73 0 -131.5 28t-86.5 83q-13 26 -13 58q0 35 16 77q62 156 235 536q17 38 -13 42q-4 1 -8 1q-45 0 -127 -67q-110 -91 -220 -256v4q-79 -183 -123 -311 q-58 -167 -60 -195q-69 5 -122 34.5t-77 82.5z" />
<glyph unicode="o" horiz-adv-x="976" d="M64 308q2 72 32 157q36 107 90 198.5t106 150t113.5 107t102.5 72t82 41.5q19 8 42 8q25 0 54 -10q26 -11 82 -40.5t98 -53.5l43 -23q31 -75 35 -194v-21q0 -110 -34 -240q-37 -142 -113 -247q24 -7 48 -8q114 0 210 172l47 -41q-64 -122 -170 -178q-60 -32 -113 -32 q-41 0 -78 19q-142 -145 -364 -145q-40 0 -81.5 10t-85 31.5t-76.5 59t-53 86.5q-18 44 -18 105q1 8 1 16zM326 240q8 -66 44 -99q24 -23 54 -23q14 0 29 5q98 33 174 153q-39 86 -39 209q0 80 16 145t36.5 101t46.5 61.5t39.5 33t21.5 10.5q-2 1 -5.5 2t-5.5 2h-8 q-35 0 -85 -30q-56 -34 -113.5 -92.5t-110 -144.5t-78.5 -176q-18 -67 -18 -121q0 -19 2 -36zM657 485q0 -63 17 -123q56 116 81 246q16 83 16 139q0 31 -5 54q-109 -100 -109 -316z" />
<glyph unicode="p" horiz-adv-x="935" d="M-158 -211l547 1235l219 -102q-10 -23 -26 -64q97 131 139 156q9 6 18.5 8t15.5 3t16.5 -2t13.5 -4t15 -6l11 -5q107 -51 154 -72q50 -23 52 -118v-10q0 -90 -32 -199q-34 -115 -88 -218q-110 -212 -220.5 -302.5t-266.5 -90.5q-116 0 -166 98q-142 -327 -178 -413z M364 144q11 -4 23 -4q31 0 72 29l14 11q57 50 107.5 120t85 140.5t59.5 142t35 129.5q11 54 11 93q0 44 -15 55q-5 4 -12 4q-31 0 -104 -67q-91 -82 -175 -207q-51 -114 -100 -230q-33 -95 -33 -149q0 -53 32 -67z" />
<glyph unicode="q" horiz-adv-x="1046" d="M66 302q15 142 108 329q141 277 348 381q36 13 49.5 12t36.5 -12l221 -105q14 -6 14 -27q0 -22 -15 -60q-30 -73 -118.5 -152.5t-203.5 -98.5q83 55 139 137q50 74 50 138q0 8 -1 16q-38 -21 -81.5 -56.5t-97 -95t-96.5 -128.5t-74 -163.5t-36 -193.5v-16q0 -51 17 -79 q15 -21 48 -21q15 0 34 4q92 22 221 202l315 711l219 -102q-367 -816 -545 -1239l-223 106q7 15 135 305q-102 -92 -208 -92q-139 0 -205 78q-54 64 -54 171q0 24 3 51z" />
<glyph unicode="r" horiz-adv-x="825" d="M84 324q37 62 108.5 197.5t100.5 221.5q-39 29 -47 90q-1 10 -2 21q0 55 31 130q37 90 118 185q24 26 58 9l196 -88q-99 -29 -156 -113q-32 -46 -32 -78q0 -9 3 -18q7 -18 26 -19q19 0 49 18q59 33 143 124q13 15 35 15q15 0 35 -7l176 -82q-216 -468 -310 -735 q-5 -18 -4 -33q0 -23 10 -38q12 -16 42 -16q16 0 38 5q59 14 126 84.5t122 156.5l54 -24q-188 -330 -424 -330q-73 0 -131.5 28t-86.5 83q-13 26 -13 58q0 35 16 77q36 91 131 311.5t147 335.5q-80 -91 -155 -134q-67 -39 -122 -39q-6 0 -12 1q-30 -84 -112.5 -239.5 t-106.5 -188.5z" />
<glyph unicode="s" horiz-adv-x="768" d="M10 268q24 73 85 100q26 12 53 12q52 0 106 -46q-35 0 -60.5 -23t-31.5 -56q-4 -18 -4 -36q0 -15 2 -29q6 -32 32.5 -55.5t67.5 -23.5q70 0 108 49q38 48 38 134q0 41 -20 81q-20 38 -46 73t-52 74t-40 93q-10 38 -10 80q0 17 2 36q8 77 46 137.5t94 96.5t121 54.5 t132 18.5q188 0 239 -100q17 -32 17 -68q0 -43 -25 -91q-40 -77 -114 -108q-35 -15 -68 -15q-59 0 -113 46q52 0 83 63q23 46 23 92q1 17 -3 34q-12 63 -64 63q-48 0 -84.5 -37t-42.5 -96q-1 -9 -1 -19q0 -40 17 -83q21 -53 55 -100t68 -95t54 -106q16 -45 15 -89 q0 -13 -1 -26q-7 -68 -41.5 -122.5t-80 -87t-99.5 -55t-97.5 -30.5t-76.5 -8q-196 0 -265 108q-29 45 -29 96q0 31 11 64z" />
<glyph unicode="t" horiz-adv-x="542" d="M34 111q-13 26 -13 58q0 35 16 77q43 108 170 389h-96l36 84h97l258 571l217 -104q-104 -223 -213 -467h94l-37 -84h-94q-137 -315 -180 -440q-5 -18 -4 -33q1 -23 11 -38q12 -16 41 -16q16 0 38 5q106 25 248 241l53 -24q-188 -330 -426 -330q-72 0 -130 28t-86 83z" />
<glyph unicode="u" horiz-adv-x="997" d="M24 111q-13 26 -13 58q0 35 16 77q33 84 119.5 279t156.5 348l70 153l219 -104q-221 -460 -313 -727q-5 -18 -4 -33q1 -23 11 -38q12 -16 41 -16q16 0 38 5q77 19 172 137q34 84 120.5 278t156.5 346l69 152l219 -104q-222 -460 -316 -727q-5 -18 -5 -32q1 -24 13 -39 q12 -16 42 -16q17 0 38 5q106 25 248 241l52 -24q-187 -330 -424 -330q-82 0 -147 35.5t-81 99.5q-128 -135 -282 -135q-72 0 -130 28t-86 83z" />
<glyph unicode="v" horiz-adv-x="811" d="M128 248v18q0 50 11 111q23 116 79 363t61 268l217 -101q-104 -363 -125 -458q-23 -101 -23 -151q0 -48 21 -48q5 0 10 2q27 60 120.5 253.5t172.5 356.5l80 164l217 -102l-520 -924q-47 0 -89.5 7.5t-84.5 25t-71.5 46t-51.5 71t-24 98.5z" />
<glyph unicode="w" horiz-adv-x="1292" d="M129 226q1 64 18 151q19 91 70.5 316.5t73.5 330.5l221 -98q-106 -367 -128 -462q-26 -112 -26 -165q0 -49 22 -49q4 0 9 2q27 60 120 249t172 348l79 159l217 -101q-104 -363 -125 -458q-23 -101 -23 -151q0 -48 21 -48q5 0 10 2q27 60 120.5 253.5t173.5 356.5l79 164 l217 -102l-520 -924q-47 0 -89.5 7.5t-84 25t-71 46t-51.5 70.5q-22 43 -24 99v15q0 51 11 114q24 123 63 299l-334 -676q-55 0 -95 11t-70 37q-29 27 -43 70q-13 40 -13 99v9z" />
<glyph unicode="x" horiz-adv-x="931" d="M50 116q-2 9 -2 19q0 28 19 62q25 46 85 92q127 101 176 145q-33 124 -55 271.5t-27 232.5l-6 86h290q6 -151 35 -365q82 83 161.5 172t115 131t49.5 60l141 -98q-61 -88 -177 -217.5t-253 -255.5q75 -338 178 -338q32 0 66 21.5t70 64t57.5 73t54.5 80.5l53 -22 q-3 -7 -9.5 -19t-29 -46.5t-47 -66t-63.5 -69.5t-80 -65.5t-94.5 -46.5t-108.5 -19q-162 0 -266 264q-71 -54 -100 -74q-33 -25 -53.5 -54t-26 -52t-6.5 -42.5t3 -30.5l3 -11q-29 0 -62 14.5t-58 42t-33 61.5z" />
<glyph unicode="y" horiz-adv-x="980" d="M12 -334q6 40 31.5 77t71.5 68t104 46q73 20 151 20h21q13 27 44.5 98t45.5 103q-109 -84 -227 -84q-53 0 -101 16t-82.5 47.5t-44.5 77.5q-2 14 -2 29q0 35 15 78q34 84 121 278.5t157 347.5l70 152l219 -102q-221 -461 -315 -730q-5 -17 -5 -31q0 -23 12 -38 q13 -15 42 -15q17 0 39 5q80 19 182 149l344 762l219 -102q-352 -768 -477 -1080q47 -12 178 -50.5t211 -57.5q92 -23 172 -26q19 -1 36 -1q55 0 93 9q49 11 85 26t50 28l15 13q0 -3 0.5 -8t-1 -20.5t-5 -30t-12.5 -34.5t-22 -36.5t-35.5 -32.5t-50.5 -26.5t-69 -15.5 q-24 -3 -49 -3q-21 0 -43 2q-80 4 -284 74.5t-306 95.5q-114 -257 -350 -257q-31 0 -65 5q-68 9 -112 36t-60 62q-12 26 -12 55q0 10 1 21zM115 -330q10 -40 80 -51q8 -1 15 -1q41 0 71 37q35 44 73 134q-2 2 -8 2q-20 2 -39 2q-93 0 -153 -46q-41 -31 -41 -64q0 -6 2 -13z " />
<glyph unicode="z" horiz-adv-x="806" d="M-38 -377q-2 11 -1 23q0 35 15 71q20 48 73.5 88.5t124.5 59.5q72 21 159 21q78 0 169 -17q8 40 8 61q0 284 -260 312q189 152 300 395q71 155 73 253q1 52 -21 50q-39 -4 -86.5 -51.5t-96.5 -125.5t-91.5 -155.5t-91 -167.5t-76.5 -135l-56 25q48 83 127 245.5 t138 262.5t116 139q54 38 110 44q11 1 22 1q43 0 77 -19q43 -24 75 -70q31 -46 37 -112l2 -30q0 -53 -15 -115q-17 -66 -45 -123t-53.5 -93.5t-63.5 -73t-59.5 -53.5t-57.5 -42q95 -35 152.5 -92t73.5 -123q11 -45 12 -89q0 -20 -2 -41q-8 -65 -37 -128q207 -62 293 -84 q94 -23 176 -26q17 -1 32 0q58 0 98 8q50 12 86 27.5t51 28.5l15 13q0 -3 0.5 -8t-1 -20.5t-5 -30.5t-13 -34.5t-22.5 -36.5t-36 -33.5t-52 -27.5t-71 -16q-26 -3 -56 -3q-18 0 -37 1q-58 4 -134.5 27t-190.5 62.5t-191 62.5q-2 -3 -7 -9.5t-7 -9.5q-8 -10 -23.5 -27 t-66 -59t-104.5 -72t-136 -49q-52 -12 -104 -12l-60 4q-82 11 -130.5 47t-54.5 82zM68 -322q13 -40 79 -55q30 -7 59 -7q62 0 122 30q88 44 137 127q-99 19 -162 24q-24 3 -47 3q-91 0 -149 -43q-41 -30 -41 -63q0 -8 2 -16z" />
<glyph unicode="{" horiz-adv-x="811" d="M206 -180.5q-4 52.5 15.5 120t42.5 123.5t64 144q43 95 50.5 175t-22.5 130q-30 53 -92 53l12 170q45 0 99.5 28.5t106.5 78t94 127t59 166.5q13 68 21.5 105.5t29.5 104.5t44 107t64 90.5t90.5 78t122 47.5t160.5 20l-12 -168q-60 0 -104.5 -8t-79.5 -29t-59 -49.5 t-44.5 -77.5t-34.5 -104.5t-30 -137.5q-31 -157 -118.5 -282.5t-201.5 -194.5q14 -18 21 -29q53 -86 46 -208t-71 -255q-91 -196 -102 -270q-5 -38 6 -55q22 -39 149 -39l-12 -168q-216 0 -284 111q-26 43 -30 95.5z" />
<glyph unicode="|" horiz-adv-x="378" d="M205 -514v2075h90l2 -2075h-92z" />
<glyph unicode="}" horiz-adv-x="1206" d="M162 -387l12 168q73 0 123 13.5t86.5 39.5t62 77t43.5 113.5t37 161.5q31 156 118.5 281.5t201.5 196.5q-17 21 -21 28q-52 87 -45 208t70 255q14 30 18 38.5t18.5 41.5t21 49t18 46t16 48.5t9 40.5t3 37t-7.5 25q-22 39 -149 39l12 168q217 0 285 -111q26 -43 30 -96 t-15 -120.5t-41.5 -123.5t-63.5 -143q-45 -94 -53 -175t22 -131q30 -53 92 -53l-12 -170q-46 0 -100 -28t-106 -77.5t-94 -127t-59 -166.5q-36 -184 -74 -273q-97 -225 -330 -269q-59 -11 -128 -11z" />
<glyph unicode="&#xa2;" horiz-adv-x="765" d="M63.5 308q2.5 72 32.5 157q36 107 90 198.5t106 150t113.5 107t102.5 72t82 41.5q41 17 96 -2q26 -11 82 -40.5t98 -53.5l43 -23q-3 -6 -8 -17t-24.5 -42.5t-43 -60.5t-63 -65t-84.5 -62.5t-108.5 -47t-133.5 -24.5q250 145 293 244q-48 -11 -104.5 -46.5t-112 -90.5 t-103.5 -135.5t-75 -170.5q-53 -186 42 -250q75 -51 208 -6q135 45 237 158q27 30 48 63l49 -30q-80 -150 -223 -241t-326 -91q-40 0 -81.5 10t-85 31.5t-76.5 59t-53 86.5t-17.5 121zM518 -514v2075h60l2 -2075h-62z" />
<glyph unicode="&#xa3;" horiz-adv-x="704" d="M-61 348l67 146h375l303 708q20 45 22.5 85t-10 69t-34.5 52t-53 35.5t-65 18.5t-70.5 2t-69 -15t-61 -32t-46.5 -49q-50 -86 -47.5 -158.5t53.5 -121t131 -50.5q-49 -44 -104 -60t-101.5 -4.5t-87.5 39t-64.5 72.5t-31 95t12.5 107.5t67 107.5q117 125 343.5 141.5 t380.5 -87.5t85 -280q-16 -41 -287 -675h418l-68 -146h-411q-134 -330 -142 -352q9 0 11 -2q95 -18 189.5 -54.5t170 -76t149 -77.5t154 -66t158.5 -35q121 -11 209.5 26t113.5 94v-18t-4.5 -44t-13 -63t-27.5 -66.5t-46 -63t-71 -44.5t-100 -18q-79 0 -166 31t-169.5 78.5 t-165.5 98t-183.5 98t-193.5 69.5q-99 24 -178.5 23.5t-123 -12t-79.5 -42t-46 -46.5t-25 -45q-4 -6 -5 -9q-4 29 3 62.5t25 68.5t53.5 66.5t82.5 50.5q14 35 66.5 160t86.5 208h-380z" />
<glyph unicode="&#xa4;" horiz-adv-x="1636" d="M203 143l200 203q-20 34 -34 68q-41 96 -41 202q0 107 41 203q8 21 34 70l-200 201l143 145l197 -197q44 35 104 60q96 41 203 41q103 0 203 -41q58 -25 104 -60l195 197l143 -145l-201 -201q20 -34 35 -70q41 -89 41 -203q0 -113 -41 -202q-17 -42 -35 -68l201 -203 l-143 -143l-195 195q-59 -41 -104 -58q-98 -43 -203 -43q-110 0 -203 43q-50 18 -104 58l-197 -195zM537 616q0 -129 91.5 -221t221.5 -92q129 0 220 92t91 221t-91 221.5t-220 92.5q-130 0 -221.5 -92.5t-91.5 -221.5z" />
<glyph unicode="&#xa5;" horiz-adv-x="1486" d="M3 1230.5q3 40.5 23.5 84.5t57.5 84q99 106 297 131q185 23 342 -35q151 -56 187 -161q25 -75 -17 -163q-49 -98 -182 -405q-36 -83 3 -136q33 -46 93 -34q77 15 135 117l365 800l217 -102q-105 -228 -232 -508h262l-90 -190h-258l-73 -166h251l-92 -191h-243 q-107 -244 -156 -362q93 -19 187 -56t168.5 -76t148 -77t153.5 -65.5t158 -34.5q121 -11 210 26t114 94v-18t-4.5 -44t-13 -63t-28 -66.5t-46.5 -63t-71 -44.5t-100 -18q-79 0 -166 31t-169.5 78.5t-165.5 98t-183.5 98t-193.5 69.5q-71 17 -132 22t-103 1.5t-78.5 -17.5 t-56.5 -27t-39.5 -35t-26.5 -33.5t-17 -30.5q-1 -3 -2 -4t-2 -3l-2 -4q-5 42 10 90t61.5 96.5t117.5 71.5q31 76 233 528q-105 -61 -262 -61q-106 7 -159.5 71t-10.5 172q33 84 88 210t94 210l39 84q20 45 22.5 85t-10 69t-34.5 52t-53 35.5t-65 18.5t-70.5 2t-69 -15 t-61 -32t-46.5 -49q-50 -86 -47.5 -158t53.5 -120t131 -50q-39 -34 -81.5 -52t-81 -17.5t-75.5 12.5t-65 37t-50 56.5t-31 71.5t-6 80.5z" />
<glyph unicode="&#xa7;" horiz-adv-x="1120" d="M10 268q25 73 86 100q24 11 51 11q57 0 107 -45q-35 0 -60.5 -23t-32 -56t-1 -65.5t32 -55.5t67.5 -23q65 0 101.5 52.5t44.5 135.5q4 37 -14 75t-45 73t-54 74t-43 93.5t-10 116.5q13 127 99.5 203t209.5 96q-18 52 -12 119q8 77 46 138t94.5 96.5t121.5 54t133 18.5 q189 0 240 -100q37 -72 -9 -159q-40 -76 -114 -107q-33 -13 -66 -13q-65 0 -115 45q52 0 83 63t19.5 126t-63.5 63q-48 0 -85.5 -37t-43.5 -96q-5 -50 16.5 -103t55 -100t67 -95.5t55 -106.5t15.5 -115q-6 -67 -39 -121t-82 -87.5t-97 -54t-99 -30.5q26 -64 18 -125 q-7 -68 -41 -122.5t-79 -87t-99.5 -55t-98 -30.5t-77.5 -8q-196 0 -265 107q-48 74 -18 161zM481 823q-2 -25 2.5 -51.5t11 -46t23.5 -49t26 -43.5t33 -47.5t31 -44.5q83 35 97 178q3 30 -9 61t-28 53.5t-42.5 58t-41.5 60.5q-41 -9 -70 -44t-33 -85z" />
<glyph unicode="&#xa9;" horiz-adv-x="1171" d="M236 700q0 83 45 162q44 78 120 121q77 41 160 41t160 -41q73 -41 121 -121q43 -76 43 -162q0 -85 -43 -161q-44 -77 -121 -121q-76 -43 -160 -43q-86 0 -162 43t-120 121q-43 76 -43 161zM301 700q0 -70 33 -129q36 -63 96 -96q60 -35 131 -35q72 0 129 35q64 36 96 96 q35 62 35 129q0 66 -35 131q-41 67 -98 95q-62 35 -127 35q-67 0 -129 -35q-59 -29 -96 -95q-35 -60 -35 -131zM401 696q0 56 21 99t59 63q37 21 84 21q49 0 88 -25q36 -25 54 -78l-68 -16q-13 33 -31 45q-17 14 -45 14q-38 0 -63 -28q-25 -31 -25 -91q0 -61 25 -92 q25 -28 57 -28q30 0 49 16q21 15 33 55l68 -22q-16 -54 -54 -82q-40 -29 -88 -29q-72 0 -119 47q-45 48 -45 131z" />
<glyph unicode="&#xad;" horiz-adv-x="890" d="M205 557l67 145h537l-68 -145h-536z" />
<glyph unicode="&#xae;" horiz-adv-x="1036" d="M203 700q0 86 43 162q46 78 121 121q77 41 159 41q83 0 160 -41q80 -45 121 -121q43 -76 43 -162q0 -85 -43 -161q-45 -79 -119 -121q-76 -43 -162 -43q-85 0 -161 43q-74 42 -119 121q-43 76 -43 161zM266 700q0 -69 35 -131q35 -61 96 -96q62 -35 129 -35q69 0 131 35 q58 33 97 96q34 61 34 131q0 69 -36 131q-35 62 -97 97q-59 33 -129 33q-68 0 -127 -33q-61 -34 -96 -97q-37 -64 -37 -131zM381 526v344h70h108q32 -3 55 -14q20 -13 31 -33q14 -22 14 -49q0 -39 -24 -63q-24 -27 -68 -33q19 -7 23 -14q9 -6 24 -27q5 -5 25 -41l41 -70h-86 l-29 56q-27 53 -49 71q-18 15 -47 15h-18v-142h-70zM451 721h28q62 0 74 6q15 3 25 16q8 12 8 27q0 9 -8 25q-6 9 -25 16q-10 4 -74 4h-28v-94z" />
<glyph unicode="&#xb0;" horiz-adv-x="747" d="M311 1329q0 67 48.5 115.5t115.5 48.5q69 0 117.5 -48t48.5 -116t-48.5 -116t-117.5 -48q-67 0 -115.5 48.5t-48.5 115.5zM385 1329q0 -38 26.5 -64t63.5 -26q38 0 65 26t27 64q0 37 -27 63.5t-65 26.5q-37 0 -63.5 -26.5t-26.5 -63.5z" />
<glyph unicode="&#xb1;" horiz-adv-x="1171" d="M147 248h537l70 143h-537zM227 764l92 190h236l104 250h191l-105 -250h248l-90 -190h-237l-105 -250h-190l104 250h-248z" />
<glyph unicode="&#xb4;" horiz-adv-x="407" d="M276 946q87 16 143 74t50 110q-40 6 -59.5 38.5t-6.5 76.5q15 47 60 81t92 34q69 0 79 -70q11 -76 -47 -174q-65 -111 -166 -154q-71 -30 -145 -16zM356 946q81 17 120 74.5t16 109.5q-43 6 -72 38.5t-29 76.5q0 47 34 81t81 34q74 0 105 -79q31 -80 0 -177 q-35 -107 -124 -145q-58 -26 -131 -13z" />
<glyph unicode="&#xba;" horiz-adv-x="747" d="M2 1206q0 152 108.5 259.5t260.5 107.5q155 0 263.5 -107.5t108.5 -259.5q0 -153 -108.5 -260.5t-263.5 -107.5q-152 0 -260.5 108t-108.5 260zM106 1206q0 -111 78 -186.5t187 -75.5q111 0 189.5 75.5t78.5 186.5q0 107 -79 184.5t-189 77.5q-108 0 -186.5 -77.5 t-78.5 -184.5z" />
<glyph unicode="&#xbf;" horiz-adv-x="1187" d="M86 444q0 -90 40 -161t104 -112t146 -59.5t163.5 -10.5t159.5 42.5t132 92.5q60 64 72.5 139t-18.5 130.5t-82 92t-122 29t-134 -63.5q114 -2 155.5 -94.5t-28.5 -206.5q-38 -59 -99 -82t-118 -8t-98.5 78.5t-41.5 163.5q0 61 32.5 115.5t84.5 96.5t115 82.5l126 81 t115 84.5t84.5 101.5t32.5 122.5q0 31 -30 38q-32 7 -50 -18q-10 -14 -10 -33q0 -42 -40.5 -81.5t-105 -73t-142 -68.5t-155.5 -76.5t-142.5 -88.5t-105 -112.5t-40.5 -140.5zM791 1362q0 49 34 83t82 34t81.5 -34t33.5 -83q0 -47 -34 -81t-81 -34t-81.5 34t-34.5 81z" />
<glyph unicode="&#xc0;" horiz-adv-x="1904" d="M3 368q7 120 104 197q86 68 186 61q109 -8 161 -103q54 -98 25 -265q-21 145 -112 184q-70 29 -140 -14q-68 -42 -80 -120q-18 -109 95 -214q58 -54 120 -69.5t117.5 1.5t115 63.5t109.5 104.5t103 136q162 245 299 430q-85 18 -159.5 19t-120 -11t-78.5 -26.5t-46 -27.5 l-14 -12q0 3 -0.5 8t1 20.5t5 30t12.5 34.5t22 36.5t35.5 32.5t50.5 26.5t69.5 15.5t91.5 1q83 -6 205 -49q236 365 459.5 549t361.5 115l217 -103q-176 -382 -332 -731q63 4 108 29t60 57q1 -5 2 -12.5t-1.5 -29.5t-11 -40t-31.5 -37.5t-58 -29.5q-52 -15 -105 -21 q-127 -292 -170 -411q-52 -147 -59 -193q-109 7 -171.5 72.5t-21.5 173.5q82 186 168 381q-35 7 -78 18t-75 20.5t-85 25t-83 24.5q-77 -123 -197 -325.5t-155 -258.5q-74 -122 -168.5 -189.5t-190.5 -75.5t-188.5 25.5t-173.5 106.5q-208 189 -198 370zM1333 807 q173 -59 303 -86q78 172 205 451t137 301q-58 10 -134.5 -40.5t-163.5 -150t-170.5 -214.5t-176.5 -261zM1657 2007h213l250 -309h-168z" />
<glyph unicode="&#xc1;" horiz-adv-x="1904" d="M3 368q7 120 104 197q86 68 186 61q109 -8 161 -103q54 -98 25 -265q-21 145 -112 184q-70 29 -140 -14q-68 -42 -80 -120q-18 -109 95 -214q58 -54 120 -69.5t117.5 1.5t115 63.5t109.5 104.5t103 136q162 245 299 430q-85 18 -159.5 19t-120 -11t-78.5 -26.5t-46 -27.5 l-14 -12q0 3 -0.5 8t1 20.5t5 30t12.5 34.5t22 36.5t35.5 32.5t50.5 26.5t69.5 15.5t91.5 1q83 -6 205 -49q236 365 459.5 549t361.5 115l217 -103q-176 -382 -332 -731q63 4 108 29t60 57q1 -5 2 -12.5t-1.5 -29.5t-11 -40t-31.5 -37.5t-58 -29.5q-52 -15 -105 -21 q-127 -292 -170 -411q-52 -147 -59 -193q-109 7 -171.5 72.5t-21.5 173.5q82 186 168 381q-35 7 -78 18t-75 20.5t-85 25t-83 24.5q-77 -123 -197 -325.5t-155 -258.5q-74 -122 -168.5 -189.5t-190.5 -75.5t-188.5 25.5t-173.5 106.5q-208 189 -198 370zM1333 807 q173 -59 303 -86q78 172 205 451t137 301q-58 10 -134.5 -40.5t-163.5 -150t-170.5 -214.5t-176.5 -261zM1950 1692l252 309h211l-295 -309h-168z" />
<glyph unicode="&#xc2;" horiz-adv-x="1904" d="M3 368q7 120 104 197q86 68 186 61q109 -8 161 -103q54 -98 25 -265q-21 145 -112 184q-70 29 -140 -14q-68 -42 -80 -120q-18 -109 95 -214q58 -54 120 -69.5t117.5 1.5t115 63.5t109.5 104.5t103 136q162 245 299 430q-85 18 -159.5 19t-120 -11t-78.5 -26.5t-46 -27.5 l-14 -12q0 3 -0.5 8t1 20.5t5 30t12.5 34.5t22 36.5t35.5 32.5t50.5 26.5t69.5 15.5t91.5 1q83 -6 205 -49q236 365 459.5 549t361.5 115l217 -103q-176 -382 -332 -731q63 4 108 29t60 57q1 -5 2 -12.5t-1.5 -29.5t-11 -40t-31.5 -37.5t-58 -29.5q-52 -15 -105 -21 q-127 -292 -170 -411q-52 -147 -59 -193q-109 7 -171.5 72.5t-21.5 173.5q82 186 168 381q-35 7 -78 18t-75 20.5t-85 25t-83 24.5q-77 -123 -197 -325.5t-155 -258.5q-74 -122 -168.5 -189.5t-190.5 -75.5t-188.5 25.5t-173.5 106.5q-208 189 -198 370zM1333 807 q173 -59 303 -86q78 172 205 451t137 301q-58 10 -134.5 -40.5t-163.5 -150t-170.5 -214.5t-176.5 -261zM1808 1782q0 47 34 80.5t83 33.5q47 0 81 -33.5t34 -80.5t-34 -81t-81 -34q-49 0 -83 33.5t-34 81.5zM2107 1782q0 47 34 80.5t83 33.5q47 0 81 -33.5t34 -80.5 t-34 -81t-81 -34q-49 0 -83 33.5t-34 81.5z" />
<glyph unicode="&#xc3;" horiz-adv-x="1904" d="M3 368q7 120 104 197q86 68 186 61q109 -8 161 -103q54 -98 25 -265q-21 145 -112 184q-70 29 -140 -14q-68 -42 -80 -120q-18 -109 95 -214q58 -54 120 -69.5t117.5 1.5t115 63.5t109.5 104.5t103 136q162 245 299 430q-85 18 -159.5 19t-120 -11t-78.5 -26.5t-46 -27.5 l-14 -12q0 3 -0.5 8t1 20.5t5 30t12.5 34.5t22 36.5t35.5 32.5t50.5 26.5t69.5 15.5t91.5 1q83 -6 205 -49q236 365 459.5 549t361.5 115l217 -103q-176 -382 -332 -731q63 4 108 29t60 57q1 -5 2 -12.5t-1.5 -29.5t-11 -40t-31.5 -37.5t-58 -29.5q-52 -15 -105 -21 q-127 -292 -170 -411q-52 -147 -59 -193q-109 7 -171.5 72.5t-21.5 173.5q82 186 168 381q-35 7 -78 18t-75 20.5t-85 25t-83 24.5q-77 -123 -197 -325.5t-155 -258.5q-74 -122 -168.5 -189.5t-190.5 -75.5t-188.5 25.5t-173.5 106.5q-208 189 -198 370zM1333 807 q173 -59 303 -86q78 172 205 451t137 301q-58 10 -134.5 -40.5t-163.5 -150t-170.5 -214.5t-176.5 -261zM1757 1706q57 81 111 123t103.5 49.5t98.5 -2.5t106.5 -28t116.5 -31.5t138 -8.5t162 37q-55 -87 -114.5 -131t-116 -48.5t-115 8.5t-119.5 35t-119 37t-124.5 7 t-127.5 -47z" />
<glyph unicode="&#xc4;" horiz-adv-x="1904" d="M3 368q7 120 104 197q86 68 186 61q109 -8 161 -103q54 -98 25 -265q-21 145 -112 184q-70 29 -140 -14q-68 -42 -80 -120q-18 -109 95 -214q58 -54 120 -69.5t117.5 1.5t115 63.5t109.5 104.5t103 136q162 245 299 430q-85 18 -159.5 19t-120 -11t-78.5 -26.5t-46 -27.5 l-14 -12q0 3 -0.5 8t1 20.5t5 30t12.5 34.5t22 36.5t35.5 32.5t50.5 26.5t69.5 15.5t91.5 1q83 -6 205 -49q236 365 459.5 549t361.5 115l217 -103q-176 -382 -332 -731q63 4 108 29t60 57q1 -5 2 -12.5t-1.5 -29.5t-11 -40t-31.5 -37.5t-58 -29.5q-52 -15 -105 -21 q-127 -292 -170 -411q-52 -147 -59 -193q-109 7 -171.5 72.5t-21.5 173.5q82 186 168 381q-35 7 -78 18t-75 20.5t-85 25t-83 24.5q-77 -123 -197 -325.5t-155 -258.5q-74 -122 -168.5 -189.5t-190.5 -75.5t-188.5 25.5t-173.5 106.5q-208 189 -198 370zM1333 807 q173 -59 303 -86q78 172 205 451t137 301q-58 10 -134.5 -40.5t-163.5 -150t-170.5 -214.5t-176.5 -261zM1808 1782q0 47 34 80.5t83 33.5q47 0 81 -33.5t34 -80.5t-34 -81t-81 -34q-49 0 -83 33.5t-34 81.5zM2107 1782q0 47 34 80.5t83 33.5q47 0 81 -33.5t34 -80.5 t-34 -81t-81 -34q-49 0 -83 33.5t-34 81.5z" />
<glyph unicode="&#xc5;" horiz-adv-x="1904" d="M3 368q7 120 104 197q86 68 186 61q109 -8 161 -103q54 -98 25 -265q-21 145 -112 184q-70 29 -140 -14q-68 -42 -80 -120q-18 -109 95 -214q58 -54 120 -69.5t117.5 1.5t115 63.5t109.5 104.5t103 136q162 245 299 430q-85 18 -159.5 19t-120 -11t-78.5 -26.5t-46 -27.5 l-14 -12q0 3 -0.5 8t1 20.5t5 30t12.5 34.5t22 36.5t35.5 32.5t50.5 26.5t69.5 15.5t91.5 1q83 -6 205 -49q236 365 459.5 549t361.5 115l217 -103q-176 -382 -332 -731q63 4 108 29t60 57q1 -5 2 -12.5t-1.5 -29.5t-11 -40t-31.5 -37.5t-58 -29.5q-52 -15 -105 -21 q-127 -292 -170 -411q-52 -147 -59 -193q-109 7 -171.5 72.5t-21.5 173.5q82 186 168 381q-35 7 -78 18t-75 20.5t-85 25t-83 24.5q-77 -123 -197 -325.5t-155 -258.5q-74 -122 -168.5 -189.5t-190.5 -75.5t-188.5 25.5t-173.5 106.5q-208 189 -198 370zM1333 807 q173 -59 303 -86q78 172 205 451t137 301q-58 10 -134.5 -40.5t-163.5 -150t-170.5 -214.5t-176.5 -261zM2007 1784q0 56 39 94.5t96 38.5q56 0 94.5 -38.5t38.5 -94.5t-38.5 -94.5t-94.5 -38.5q-57 0 -96 38.5t-39 94.5zM2050 1784q0 -38 27 -64t65 -26q37 0 63.5 26 t26.5 64q0 37 -26.5 63.5t-63.5 26.5q-38 0 -65 -26.5t-27 -63.5z" />
<glyph unicode="&#xc6;" horiz-adv-x="2453" d="M3 368q7 120 104 197q86 68 186 61q109 -8 161 -103q54 -98 25 -265q-21 145 -112 184q-70 29 -140 -14q-68 -42 -80 -120q-18 -109 95 -214q58 -54 120 -69.5t117.5 1.5t115 63.5t109.5 104.5t103 136q162 245 299 430q-85 18 -159.5 19t-120 -11t-78.5 -26.5t-46 -27.5 l-14 -12q0 3 -0.5 8t1 20.5t5 30t12.5 34.5t22 36.5t35.5 32.5t50.5 26.5t69.5 15.5t91.5 1q83 -6 205 -49q228 354 446.5 538.5t358.5 131.5q221 85 458 -45q145 -82 150 -228q3 -120 -84 -228q-82 -102 -193 -128q-124 -28 -221 62q79 -2 182 87q99 86 137 181 q46 115 -39 160l-8 4q-128 59 -286 -29q-122 -67 -201 -186q-83 -124 -62 -218q26 -110 194 -117q12 -1 24 -1q0 -8 -0.5 -21t-5 -46.5t-12.5 -60.5t-26 -51t-42 -28q-160 -37 -253 -160q-80 -107 -69 -218q12 -114 116 -167q69 -35 169 -35q97 0 185 18.5t151.5 47.5 t118.5 64.5t90.5 71t60.5 64.5t36 47l11 19l53 -27q-4 -9 -12.5 -24t-39.5 -59t-68.5 -84t-101.5 -89t-136 -84t-173.5 -59t-213.5 -24q-149 0 -258.5 33.5t-166.5 89.5t-80 128.5t-7.5 150.5t60 156t114.5 144q-18 4 -262 76q-77 -123 -197 -325.5t-155 -258.5 q-74 -122 -168.5 -189.5t-190.5 -75.5t-188.5 25.5t-173.5 106.5q-208 189 -198 370zM1333 807q173 -59 303 -86h4q59 38 103 57q-86 59 -113 156.5t0.5 201.5t98.5 197q-166 -166 -396 -526z" />
<glyph unicode="&#xc8;" horiz-adv-x="1095" d="M1.5 280.5q2.5 68.5 30 141t78 138.5t122 123t155.5 95q-126 87 -127 250q0 150 103 294q107 150 271 209q223 81 453 -48q145 -82 150 -228q3 -120 -84 -228q-82 -102 -193 -128q-124 -28 -221 62q79 -2 183 87q99 86 137 181q46 115 -39 160l-8 4q-128 59 -287 -29 q-121 -67 -201 -186q-83 -124 -61 -218q25 -110 193 -117q12 -1 24 -1q0 -8 -0.5 -21t-5 -46.5t-12.5 -60.5t-26 -51t-42 -28q-160 -37 -253 -160q-80 -107 -69 -218q12 -114 116 -167q69 -35 169 -35q97 0 185 18.5t151.5 47.5t118.5 64.5t90.5 71t60.5 64.5t36 47l11 19 l54 -27q-4 -9 -12.5 -24t-40 -59t-69 -84t-101.5 -89t-136 -84t-173.5 -59t-213.5 -24q-135 0 -237.5 28t-161.5 74.5t-89.5 109.5t-28 131.5zM528 2007h213l250 -309h-168z" />
<glyph unicode="&#xc9;" horiz-adv-x="1095" d="M1.5 280.5q2.5 68.5 30 141t78 138.5t122 123t155.5 95q-126 87 -127 250q0 150 103 294q107 150 271 209q223 81 453 -48q145 -82 150 -228q3 -120 -84 -228q-82 -102 -193 -128q-124 -28 -221 62q79 -2 183 87q99 86 137 181q46 115 -39 160l-8 4q-128 59 -287 -29 q-121 -67 -201 -186q-83 -124 -61 -218q25 -110 193 -117q12 -1 24 -1q0 -8 -0.5 -21t-5 -46.5t-12.5 -60.5t-26 -51t-42 -28q-160 -37 -253 -160q-80 -107 -69 -218q12 -114 116 -167q69 -35 169 -35q97 0 185 18.5t151.5 47.5t118.5 64.5t90.5 71t60.5 64.5t36 47l11 19 l54 -27q-4 -9 -12.5 -24t-40 -59t-69 -84t-101.5 -89t-136 -84t-173.5 -59t-213.5 -24q-135 0 -237.5 28t-161.5 74.5t-89.5 109.5t-28 131.5zM719 1692l252 309h211l-295 -309h-168z" />
<glyph unicode="&#xca;" horiz-adv-x="1095" d="M1.5 280.5q2.5 68.5 30 141t78 138.5t122 123t155.5 95q-126 87 -127 250q0 150 103 294q107 150 271 209q223 81 453 -48q145 -82 150 -228q3 -120 -84 -228q-82 -102 -193 -128q-124 -28 -221 62q79 -2 183 87q99 86 137 181q46 115 -39 160l-8 4q-128 59 -287 -29 q-121 -67 -201 -186q-83 -124 -61 -218q25 -110 193 -117q12 -1 24 -1q0 -8 -0.5 -21t-5 -46.5t-12.5 -60.5t-26 -51t-42 -28q-160 -37 -253 -160q-80 -107 -69 -218q12 -114 116 -167q69 -35 169 -35q97 0 185 18.5t151.5 47.5t118.5 64.5t90.5 71t60.5 64.5t36 47l11 19 l54 -27q-4 -9 -12.5 -24t-40 -59t-69 -84t-101.5 -89t-136 -84t-173.5 -59t-213.5 -24q-135 0 -237.5 28t-161.5 74.5t-89.5 109.5t-28 131.5zM518 1946h213l64 -248h-168zM950 1692l74 247h211l-117 -247h-168z" />
<glyph unicode="&#xcb;" horiz-adv-x="1095" d="M1.5 280.5q2.5 68.5 30 141t78 138.5t122 123t155.5 95q-126 87 -127 250q0 150 103 294q107 150 271 209q223 81 453 -48q145 -82 150 -228q3 -120 -84 -228q-82 -102 -193 -128q-124 -28 -221 62q79 -2 183 87q99 86 137 181q46 115 -39 160l-8 4q-128 59 -287 -29 q-121 -67 -201 -186q-83 -124 -61 -218q25 -110 193 -117q12 -1 24 -1q0 -8 -0.5 -21t-5 -46.5t-12.5 -60.5t-26 -51t-42 -28q-160 -37 -253 -160q-80 -107 -69 -218q12 -114 116 -167q69 -35 169 -35q97 0 185 18.5t151.5 47.5t118.5 64.5t90.5 71t60.5 64.5t36 47l11 19 l54 -27q-4 -9 -12.5 -24t-40 -59t-69 -84t-101.5 -89t-136 -84t-173.5 -59t-213.5 -24q-135 0 -237.5 28t-161.5 74.5t-89.5 109.5t-28 131.5zM631 1782q0 47 34 80.5t83 33.5q47 0 80.5 -33.5t33.5 -80.5t-33.5 -81t-80.5 -34q-49 0 -83 33.5t-34 81.5zM930 1782 q0 47 34 80.5t83 33.5q47 0 80.5 -33.5t33.5 -80.5t-33.5 -81t-80.5 -34q-49 0 -83 33.5t-34 81.5z" />
<glyph unicode="&#xcc;" horiz-adv-x="645" d="M1.5 1180q-7.5 50 13 107.5t67.5 107.5q117 125 343.5 141.5t380.5 -87.5t85 -280q-15 -39 -135.5 -313.5t-221.5 -522t-118 -337.5q-69 4 -122 33t-77.5 82.5t6.5 130.5q33 83 137.5 323t192.5 439l88 198q20 45 22.5 85t-10 69t-34.5 52t-53 35.5t-65 18.5t-70.5 2 t-69 -15t-61 -32t-46.5 -49q-50 -86 -47.5 -158.5t53.5 -121t131 -50.5q-49 -44 -104 -60t-101.5 -4.5t-88 39t-65 72.5t-31 95zM291 2007h213l250 -309h-168z" />
<glyph unicode="&#xcd;" horiz-adv-x="645" d="M1.5 1180q-7.5 50 13 107.5t67.5 107.5q117 125 343.5 141.5t380.5 -87.5t85 -280q-15 -39 -135.5 -313.5t-221.5 -522t-118 -337.5q-69 4 -122 33t-77.5 82.5t6.5 130.5q33 83 137.5 323t192.5 439l88 198q20 45 22.5 85t-10 69t-34.5 52t-53 35.5t-65 18.5t-70.5 2 t-69 -15t-61 -32t-46.5 -49q-50 -86 -47.5 -158.5t53.5 -121t131 -50.5q-49 -44 -104 -60t-101.5 -4.5t-88 39t-65 72.5t-31 95zM506 1692l252 309h211l-295 -309h-168z" />
<glyph unicode="&#xce;" horiz-adv-x="645" d="M1.5 1180q-7.5 50 13 107.5t67.5 107.5q117 125 343.5 141.5t380.5 -87.5t85 -280q-15 -39 -135.5 -313.5t-221.5 -522t-118 -337.5q-69 4 -122 33t-77.5 82.5t6.5 130.5q33 83 137.5 323t192.5 439l88 198q20 45 22.5 85t-10 69t-34.5 52t-53 35.5t-65 18.5t-70.5 2 t-69 -15t-61 -32t-46.5 -49q-50 -86 -47.5 -158.5t53.5 -121t131 -50.5q-49 -44 -104 -60t-101.5 -4.5t-88 39t-65 72.5t-31 95zM242 1946h213l63 -248h-168zM674 1692l74 247h210l-116 -247h-168z" />
<glyph unicode="&#xcf;" horiz-adv-x="645" d="M1.5 1180q-7.5 50 13 107.5t67.5 107.5q117 125 343.5 141.5t380.5 -87.5t85 -280q-15 -39 -135.5 -313.5t-221.5 -522t-118 -337.5q-69 4 -122 33t-77.5 82.5t6.5 130.5q33 83 137.5 323t192.5 439l88 198q20 45 22.5 85t-10 69t-34.5 52t-53 35.5t-65 18.5t-70.5 2 t-69 -15t-61 -32t-46.5 -49q-50 -86 -47.5 -158.5t53.5 -121t131 -50.5q-49 -44 -104 -60t-101.5 -4.5t-88 39t-65 72.5t-31 95zM373 1782q0 48 33.5 81t82.5 33q47 0 81 -33.5t34 -80.5t-34 -81t-81 -34q-49 0 -82.5 33.5t-33.5 81.5zM672 1782q0 48 33.5 81t82.5 33 q47 0 81 -33.5t34 -80.5t-34 -81t-81 -34q-49 0 -82.5 33.5t-33.5 81.5z" />
<glyph unicode="&#xd1;" horiz-adv-x="1196" d="M5.5 906.5q-14.5 109.5 20 201.5t107.5 172t174 136t224.5 88t252.5 32q70 0 141.5 -10.5t142.5 -33.5t131 -56t105 -82.5t68 -109.5t15.5 -139t-48.5 -169q-202 -432 -313 -748q-52 -148 -59 -192q-109 7 -171.5 72.5t-21.5 173.5q172 422 334 776q33 72 39 132.5 t-13 103t-53.5 74.5t-85 50.5t-105.5 27.5t-116 9q-100 0 -191 -31.5t-158 -83t-124 -118t-95.5 -136.5t-65 -139.5t-38.5 -125t-12 -93.5q-70 109 -84.5 218.5zM259.5 111.5q-24.5 53.5 6.5 130.5q33 83 150.5 353.5t219.5 500.5l101 229l217 -104q-344 -766 -438 -1033 q-55 -164 -57 -192q-69 4 -122 33t-77.5 82.5zM784 1706q57 81 111 123t103.5 49.5t98.5 -2.5t106.5 -28t116.5 -31.5t138 -8.5t162 37q-55 -87 -114.5 -131t-116 -48.5t-115 8.5t-119.5 35t-119 37t-124.5 7t-127.5 -47z" />
<glyph unicode="&#xd2;" horiz-adv-x="1429" d="M1.5 906.5q-4.5 109.5 38.5 201.5t123.5 172t186.5 136t232.5 88t255.5 32q242 0 393.5 -87t210.5 -235q48 -119 51.5 -264t-31.5 -286.5t-106.5 -276t-166.5 -237t-220.5 -164.5t-259.5 -62q-115 0 -200.5 32.5t-134.5 91t-73.5 135.5t-21 169.5t26.5 190.5t65 200 q67 160 179 307t236 253l77 -7q147 -22 142 -78q-4 -26 -38 -57q-114 -98 -208.5 -224t-152.5 -261q-64 -155 -77 -299t26 -232t119 -88q93 0 183 56.5t159 148.5t122 212t79 243.5t21.5 247.5t-42.5 219q-41 99 -137 165t-244 66q-100 0 -193.5 -31.5t-165.5 -83 t-135.5 -118t-107.5 -136.5t-77 -139.5t-50 -125t-20 -93.5q-60 109 -64.5 218.5zM819 2007h213l250 -309h-168z" />
<glyph unicode="&#xd3;" horiz-adv-x="1429" d="M1.5 906.5q-4.5 109.5 38.5 201.5t123.5 172t186.5 136t232.5 88t255.5 32q242 0 393.5 -87t210.5 -235q48 -119 51.5 -264t-31.5 -286.5t-106.5 -276t-166.5 -237t-220.5 -164.5t-259.5 -62q-115 0 -200.5 32.5t-134.5 91t-73.5 135.5t-21 169.5t26.5 190.5t65 200 q67 160 179 307t236 253l77 -7q147 -22 142 -78q-4 -26 -38 -57q-114 -98 -208.5 -224t-152.5 -261q-64 -155 -77 -299t26 -232t119 -88q93 0 183 56.5t159 148.5t122 212t79 243.5t21.5 247.5t-42.5 219q-41 99 -137 165t-244 66q-100 0 -193.5 -31.5t-165.5 -83 t-135.5 -118t-107.5 -136.5t-77 -139.5t-50 -125t-20 -93.5q-60 109 -64.5 218.5zM1004 1692l251 309h211l-295 -309h-167z" />
<glyph unicode="&#xd4;" horiz-adv-x="1429" d="M1.5 906.5q-4.5 109.5 38.5 201.5t123.5 172t186.5 136t232.5 88t255.5 32q242 0 393.5 -87t210.5 -235q48 -119 51.5 -264t-31.5 -286.5t-106.5 -276t-166.5 -237t-220.5 -164.5t-259.5 -62q-115 0 -200.5 32.5t-134.5 91t-73.5 135.5t-21 169.5t26.5 190.5t65 200 q67 160 179 307t236 253l77 -7q147 -22 142 -78q-4 -26 -38 -57q-114 -98 -208.5 -224t-152.5 -261q-64 -155 -77 -299t26 -232t119 -88q93 0 183 56.5t159 148.5t122 212t79 243.5t21.5 247.5t-42.5 219q-41 99 -137 165t-244 66q-100 0 -193.5 -31.5t-165.5 -83 t-135.5 -118t-107.5 -136.5t-77 -139.5t-50 -125t-20 -93.5q-60 109 -64.5 218.5zM793 1946h213l63 -248h-168zM1225 1692l73 247h211l-116 -247h-168z" />
<glyph unicode="&#xd5;" horiz-adv-x="1429" d="M1.5 906.5q-4.5 109.5 38.5 201.5t123.5 172t186.5 136t232.5 88t255.5 32q242 0 393.5 -87t210.5 -235q48 -119 51.5 -264t-31.5 -286.5t-106.5 -276t-166.5 -237t-220.5 -164.5t-259.5 -62q-115 0 -200.5 32.5t-134.5 91t-73.5 135.5t-21 169.5t26.5 190.5t65 200 q67 160 179 307t236 253l77 -7q147 -22 142 -78q-4 -26 -38 -57q-114 -98 -208.5 -224t-152.5 -261q-64 -155 -77 -299t26 -232t119 -88q93 0 183 56.5t159 148.5t122 212t79 243.5t21.5 247.5t-42.5 219q-41 99 -137 165t-244 66q-100 0 -193.5 -31.5t-165.5 -83 t-135.5 -118t-107.5 -136.5t-77 -139.5t-50 -125t-20 -93.5q-60 109 -64.5 218.5zM784 1706q57 81 111 123t103.5 49.5t98.5 -2.5t106.5 -28t116.5 -31.5t138 -8.5t162 37q-55 -87 -114.5 -131t-116 -48.5t-115 8.5t-119.5 35t-119 37t-124.5 7t-127.5 -47z" />
<glyph unicode="&#xd6;" horiz-adv-x="1429" d="M1.5 906.5q-4.5 109.5 38.5 201.5t123.5 172t186.5 136t232.5 88t255.5 32q242 0 393.5 -87t210.5 -235q48 -119 51.5 -264t-31.5 -286.5t-106.5 -276t-166.5 -237t-220.5 -164.5t-259.5 -62q-115 0 -200.5 32.5t-134.5 91t-73.5 135.5t-21 169.5t26.5 190.5t65 200 q67 160 179 307t236 253l77 -7q147 -22 142 -78q-4 -26 -38 -57q-114 -98 -208.5 -224t-152.5 -261q-64 -155 -77 -299t26 -232t119 -88q93 0 183 56.5t159 148.5t122 212t79 243.5t21.5 247.5t-42.5 219q-41 99 -137 165t-244 66q-100 0 -193.5 -31.5t-165.5 -83 t-135.5 -118t-107.5 -136.5t-77 -139.5t-50 -125t-20 -93.5q-60 109 -64.5 218.5zM971 1782q0 48 33.5 81t82.5 33q47 0 81 -33.5t34 -80.5t-34 -81t-81 -34q-49 0 -82.5 33.5t-33.5 81.5zM1270 1782q0 48 33.5 81t82.5 33q47 0 81 -33.5t34 -80.5t-34 -81t-81 -34 q-49 0 -82.5 33.5t-33.5 81.5z" />
<glyph unicode="&#xd7;" horiz-adv-x="1882" d="M352 113l496 643l-496 643h189l401 -522l401 522h189l-496 -643l496 -643h-189l-401 520l-401 -520h-189z" />
<glyph unicode="&#xd9;" horiz-adv-x="1216" d="M1.5 1180q-7.5 50 13 107.5t67.5 107.5q117 125 343.5 141.5t380.5 -87.5t85 -280q-18 -45 -173.5 -363t-228.5 -487q-34 -81 8 -138q37 -49 102 -42q85 10 147 116q10 16 18 34q48 116 167.5 380t214.5 471l95 206l217 -103q-371 -788 -463 -1055q-12 -46 6.5 -71 t79.5 -11q58 14 123.5 83.5t124.5 158.5l51 -24q-188 -330 -422 -330q-77 0 -140.5 32.5t-82.5 90.5q-121 -121 -342 -121q-106 7 -159.5 72t-10.5 174q33 83 137.5 323t192.5 439l88 198q20 45 22.5 85t-10 69t-34.5 52t-53 35.5t-65 18.5t-70.5 2t-69 -15t-61 -32 t-46.5 -49q-50 -86 -47.5 -158.5t53.5 -121t131 -50.5q-49 -44 -104 -60t-101.5 -4.5t-88 39t-65 72.5t-31 95zM819 2007h213l250 -309h-168z" />
<glyph unicode="&#xda;" horiz-adv-x="1216" d="M1.5 1180q-7.5 50 13 107.5t67.5 107.5q117 125 343.5 141.5t380.5 -87.5t85 -280q-18 -45 -173.5 -363t-228.5 -487q-34 -81 8 -138q37 -49 102 -42q85 10 147 116q10 16 18 34q48 116 167.5 380t214.5 471l95 206l217 -103q-371 -788 -463 -1055q-12 -46 6.5 -71 t79.5 -11q58 14 123.5 83.5t124.5 158.5l51 -24q-188 -330 -422 -330q-77 0 -140.5 32.5t-82.5 90.5q-121 -121 -342 -121q-106 7 -159.5 72t-10.5 174q33 83 137.5 323t192.5 439l88 198q20 45 22.5 85t-10 69t-34.5 52t-53 35.5t-65 18.5t-70.5 2t-69 -15t-61 -32 t-46.5 -49q-50 -86 -47.5 -158.5t53.5 -121t131 -50.5q-49 -44 -104 -60t-101.5 -4.5t-88 39t-65 72.5t-31 95zM1004 1692l251 309h211l-295 -309h-167z" />
<glyph unicode="&#xdb;" horiz-adv-x="1216" d="M1.5 1180q-7.5 50 13 107.5t67.5 107.5q117 125 343.5 141.5t380.5 -87.5t85 -280q-18 -45 -173.5 -363t-228.5 -487q-34 -81 8 -138q37 -49 102 -42q85 10 147 116q10 16 18 34q48 116 167.5 380t214.5 471l95 206l217 -103q-371 -788 -463 -1055q-12 -46 6.5 -71 t79.5 -11q58 14 123.5 83.5t124.5 158.5l51 -24q-188 -330 -422 -330q-77 0 -140.5 32.5t-82.5 90.5q-121 -121 -342 -121q-106 7 -159.5 72t-10.5 174q33 83 137.5 323t192.5 439l88 198q20 45 22.5 85t-10 69t-34.5 52t-53 35.5t-65 18.5t-70.5 2t-69 -15t-61 -32 t-46.5 -49q-50 -86 -47.5 -158.5t53.5 -121t131 -50.5q-49 -44 -104 -60t-101.5 -4.5t-88 39t-65 72.5t-31 95zM793 1946h213l63 -248h-168zM1225 1692l73 247h211l-116 -247h-168z" />
<glyph unicode="&#xdc;" horiz-adv-x="1216" d="M1.5 1180q-7.5 50 13 107.5t67.5 107.5q117 125 343.5 141.5t380.5 -87.5t85 -280q-18 -45 -173.5 -363t-228.5 -487q-34 -81 8 -138q37 -49 102 -42q85 10 147 116q10 16 18 34q48 116 167.5 380t214.5 471l95 206l217 -103q-371 -788 -463 -1055q-12 -46 6.5 -71 t79.5 -11q58 14 123.5 83.5t124.5 158.5l51 -24q-188 -330 -422 -330q-77 0 -140.5 32.5t-82.5 90.5q-121 -121 -342 -121q-106 7 -159.5 72t-10.5 174q33 83 137.5 323t192.5 439l88 198q20 45 22.5 85t-10 69t-34.5 52t-53 35.5t-65 18.5t-70.5 2t-69 -15t-61 -32 t-46.5 -49q-50 -86 -47.5 -158.5t53.5 -121t131 -50.5q-49 -44 -104 -60t-101.5 -4.5t-88 39t-65 72.5t-31 95zM844 1782q0 47 34 80.5t83 33.5q47 0 80.5 -33.5t33.5 -80.5t-33.5 -81t-80.5 -34q-49 0 -83 33.5t-34 81.5zM1143 1782q0 47 34 80.5t83 33.5q47 0 80.5 -33.5 t33.5 -80.5t-33.5 -81t-80.5 -34q-49 0 -83 33.5t-34 81.5z" />
<glyph unicode="&#xdd;" horiz-adv-x="1155" d="M3 1230.5q3 40.5 23.5 84.5t57.5 84q99 106 297 131q185 23 342 -35q151 -56 187 -161q25 -75 -17 -163q-49 -98 -182 -405q-36 -83 3 -136q33 -46 93 -34q77 15 135 117l365 800l217 -102q-477 -1041 -631 -1417q93 -19 187 -56t168.5 -76t148 -77t153.5 -65.5 t158 -34.5q121 -11 210 26t114 94v-18t-4.5 -44t-13 -63t-28 -66.5t-46.5 -63t-71 -44.5t-100 -18q-79 0 -166 31t-169.5 78.5t-165.5 98t-183.5 98t-193.5 69.5q-71 17 -132 22t-103 1.5t-78.5 -17.5t-56.5 -27t-39.5 -35t-26.5 -33.5t-17 -30.5q-1 -3 -2 -4t-2 -3l-2 -4 q-5 42 10 90t61.5 96.5t117.5 71.5q31 76 233 528q-105 -61 -262 -61q-106 7 -159.5 71t-10.5 172q33 84 88 210t94 210l39 84q20 45 22.5 85t-10 69t-34.5 52t-53 35.5t-65 18.5t-70.5 2t-69 -15t-61 -32t-46.5 -49q-50 -86 -47.5 -158t53.5 -120t131 -50 q-39 -34 -81.5 -52t-81 -17.5t-75.5 12.5t-65 37t-50 56.5t-31 71.5t-6 80.5zM1004 1692l251 309h211l-295 -309h-167z" />
<glyph unicode="&#xe0;" d="M66 303q15 143 108 330q141 277 348 381q20 9 37 10.5t24 -1t25 -9.5l221 -105q28 -14 -1.5 -87.5t-118 -152.5t-203.5 -98q84 55 139.5 136.5t48.5 152.5q-37 -21 -81 -56t-97.5 -94t-96.5 -128t-74 -163.5t-36 -193.5q-3 -63 17.5 -94.5t81.5 -17.5q92 22 221 202 q44 104 123 281.5t136 303.5l58 126l219 -104q-219 -460 -313 -727q-12 -46 6.5 -71t79.5 -11q59 14 126 84.5t122 156.5l53 -24q-187 -330 -424 -330q-88 0 -155 40.5t-74 111.5q-129 -150 -264 -150q-139 0 -205 79t-51 222zM489 1526h213l250 -309h-168z" />
<glyph unicode="&#xe1;" d="M66 303q15 143 108 330q141 277 348 381q20 9 37 10.5t24 -1t25 -9.5l221 -105q28 -14 -1.5 -87.5t-118 -152.5t-203.5 -98q84 55 139.5 136.5t48.5 152.5q-37 -21 -81 -56t-97.5 -94t-96.5 -128t-74 -163.5t-36 -193.5q-3 -63 17.5 -94.5t81.5 -17.5q92 22 221 202 q44 104 123 281.5t136 303.5l58 126l219 -104q-219 -460 -313 -727q-12 -46 6.5 -71t79.5 -11q59 14 126 84.5t122 156.5l53 -24q-187 -330 -424 -330q-88 0 -155 40.5t-74 111.5q-129 -150 -264 -150q-139 0 -205 79t-51 222zM672 1227l252 309h211l-295 -309h-168z" />
<glyph unicode="&#xe2;" d="M66 303q15 143 108 330q141 277 348 381q20 9 37 10.5t24 -1t25 -9.5l221 -105q28 -14 -1.5 -87.5t-118 -152.5t-203.5 -98q84 55 139.5 136.5t48.5 152.5q-37 -21 -81 -56t-97.5 -94t-96.5 -128t-74 -163.5t-36 -193.5q-3 -63 17.5 -94.5t81.5 -17.5q92 22 221 202 q44 104 123 281.5t136 303.5l58 126l219 -104q-219 -460 -313 -727q-12 -46 6.5 -71t79.5 -11q59 14 126 84.5t122 156.5l53 -24q-187 -330 -424 -330q-88 0 -155 40.5t-74 111.5q-129 -150 -264 -150q-139 0 -205 79t-51 222zM553 1284l575 264l101 -448q-6 3 -15.5 9 t-36 29t-49.5 51.5t-49.5 79t-42.5 109.5q-69 -44 -144 -70t-133 -31.5t-106 -4.5t-74 6z" />
<glyph unicode="&#xe3;" d="M66 303q15 143 108 330q141 277 348 381q20 9 37 10.5t24 -1t25 -9.5l221 -105q28 -14 -1.5 -87.5t-118 -152.5t-203.5 -98q84 55 139.5 136.5t48.5 152.5q-37 -21 -81 -56t-97.5 -94t-96.5 -128t-74 -163.5t-36 -193.5q-3 -63 17.5 -94.5t81.5 -17.5q92 22 221 202 q44 104 123 281.5t136 303.5l58 126l219 -104q-219 -460 -313 -727q-12 -46 6.5 -71t79.5 -11q59 14 126 84.5t122 156.5l53 -24q-187 -330 -424 -330q-88 0 -155 40.5t-74 111.5q-129 -150 -264 -150q-139 0 -205 79t-51 222zM457 1354q57 81 111 123t103.5 49.5t98.5 -2.5 t106.5 -28t116 -31.5t137.5 -8.5t162 37q-55 -87 -114.5 -131t-116 -48.5t-114.5 8.5t-119 35t-119.5 37t-124.5 7t-127 -47z" />
<glyph unicode="&#xe4;" d="M66 303q15 143 108 330q141 277 348 381q20 9 37 10.5t24 -1t25 -9.5l221 -105q28 -14 -1.5 -87.5t-118 -152.5t-203.5 -98q84 55 139.5 136.5t48.5 152.5q-37 -21 -81 -56t-97.5 -94t-96.5 -128t-74 -163.5t-36 -193.5q-3 -63 17.5 -94.5t81.5 -17.5q92 22 221 202 q44 104 123 281.5t136 303.5l58 126l219 -104q-219 -460 -313 -727q-12 -46 6.5 -71t79.5 -11q59 14 126 84.5t122 156.5l53 -24q-187 -330 -424 -330q-88 0 -155 40.5t-74 111.5q-129 -150 -264 -150q-139 0 -205 79t-51 222zM621 1329q0 48 33.5 81.5t82.5 33.5 q47 0 81 -34t34 -81t-34 -81t-81 -34q-49 0 -82.5 33.5t-33.5 81.5zM920 1329q0 48 33.5 81.5t82.5 33.5q47 0 81 -34t34 -81t-34 -81t-81 -34q-49 0 -82.5 33.5t-33.5 81.5z" />
<glyph unicode="&#xe5;" d="M66 303q15 143 108 330q141 277 348 381q20 9 37 10.5t24 -1t25 -9.5l221 -105q28 -14 -1.5 -87.5t-118 -152.5t-203.5 -98q84 55 139.5 136.5t48.5 152.5q-37 -21 -81 -56t-97.5 -94t-96.5 -128t-74 -163.5t-36 -193.5q-3 -63 17.5 -94.5t81.5 -17.5q92 22 221 202 q44 104 123 281.5t136 303.5l58 126l219 -104q-219 -460 -313 -727q-12 -46 6.5 -71t79.5 -11q59 14 126 84.5t122 156.5l53 -24q-187 -330 -424 -330q-88 0 -155 40.5t-74 111.5q-129 -150 -264 -150q-139 0 -205 79t-51 222zM705 1407q0 56 39 94.5t96 38.5q56 0 94.5 -39 t38.5 -94t-38.5 -94t-94.5 -39q-57 0 -96 38.5t-39 94.5zM748 1407q0 -38 27 -64t65 -26q37 0 63.5 26t26.5 64q0 37 -26.5 63.5t-63.5 26.5q-38 0 -65 -26.5t-27 -63.5z" />
<glyph unicode="&#xe6;" horiz-adv-x="1849" d="M66 303q15 143 108 330q141 277 348 381q20 9 37 10.5t24 -1t25 -9.5l221 -105q28 -14 -1.5 -87.5t-118 -152.5t-203.5 -98q84 55 139.5 136.5t48.5 152.5q-37 -21 -81 -56t-97.5 -94t-96.5 -128t-74 -163.5t-36 -193.5q-3 -63 17.5 -94.5t81.5 -17.5q43 11 126 92 t152 166q6 41 25 94q37 108 92 200t108 151t114.5 107t103 71t81.5 40q41 18 93 -2q25 -11 80.5 -40.5t98.5 -53.5l42 -23q0 -10 -1.5 -27t-12.5 -68t-31 -98.5t-63.5 -108.5t-101.5 -109.5t-153.5 -90.5t-212.5 -61q-33 -162 65 -214q82 -43 214 7q136 53 232 170 q18 23 34 47l49 -30q-87 -159 -225.5 -245.5t-323.5 -86.5q-43 0 -88.5 12.5t-91 38t-80.5 72t-47 106.5q-111 -128 -198.5 -177.5t-165.5 -49.5q-139 0 -205 79t-51 222zM981 465q96 35 175.5 92t123 111.5t64 101.5t10.5 70q-95 -21 -203.5 -123t-169.5 -252z" />
<glyph unicode="&#xe8;" horiz-adv-x="804" d="M65 280.5q-7 78.5 31 184.5q37 108 92 200t108.5 151t114.5 107t103 71t82 40q40 18 92 -2q25 -11 80.5 -40.5t97.5 -53.5l43 -23q0 -10 -1 -27t-12.5 -68t-31.5 -98.5t-63 -108.5t-101 -109.5t-153.5 -90.5t-212.5 -61q-33 -162 65 -214q82 -43 214 7q136 53 232 170 q19 23 34 47l49 -30q-87 -159 -225.5 -245.5t-323.5 -86.5q-47 0 -96.5 14.5t-100.5 47.5t-80.5 86.5t-36.5 132zM367 465q96 35 175.5 92t123 111.5t63.5 101.5t10 70q-95 -21 -203 -123t-169 -252zM395 1526h213l250 -309h-168z" />
<glyph unicode="&#xe9;" horiz-adv-x="804" d="M65 280.5q-7 78.5 31 184.5q37 108 92 200t108.5 151t114.5 107t103 71t82 40q40 18 92 -2q25 -11 80.5 -40.5t97.5 -53.5l43 -23q0 -10 -1 -27t-12.5 -68t-31.5 -98.5t-63 -108.5t-101 -109.5t-153.5 -90.5t-212.5 -61q-33 -162 65 -214q82 -43 214 7q136 53 232 170 q19 23 34 47l49 -30q-87 -159 -225.5 -245.5t-323.5 -86.5q-47 0 -96.5 14.5t-100.5 47.5t-80.5 86.5t-36.5 132zM367 465q96 35 175.5 92t123 111.5t63.5 101.5t10 70q-95 -21 -203 -123t-169 -252zM410 1227l252 309h210l-294 -309h-168z" />
<glyph unicode="&#xea;" horiz-adv-x="804" d="M65 280.5q-7 78.5 31 184.5q37 108 92 200t108.5 151t114.5 107t103 71t82 40q40 18 92 -2q25 -11 80.5 -40.5t97.5 -53.5l43 -23q0 -10 -1 -27t-12.5 -68t-31.5 -98.5t-63 -108.5t-101 -109.5t-153.5 -90.5t-212.5 -61q-33 -162 65 -214q82 -43 214 7q136 53 232 170 q19 23 34 47l49 -30q-87 -159 -225.5 -245.5t-323.5 -86.5q-47 0 -96.5 14.5t-100.5 47.5t-80.5 86.5t-36.5 132zM367 465q96 35 175.5 92t123 111.5t63.5 101.5t10 70q-95 -21 -203 -123t-169 -252zM397 1284l576 264l100 -448q-5 3 -14.5 9t-36 29t-49.5 51.5t-49.5 79 t-42.5 109.5q-69 -44 -144 -70t-133 -31.5t-106.5 -4.5t-74.5 6z" />
<glyph unicode="&#xeb;" horiz-adv-x="804" d="M65 280.5q-7 78.5 31 184.5q37 108 92 200t108.5 151t114.5 107t103 71t82 40q40 18 92 -2q25 -11 80.5 -40.5t97.5 -53.5l43 -23q0 -10 -1 -27t-12.5 -68t-31.5 -98.5t-63 -108.5t-101 -109.5t-153.5 -90.5t-212.5 -61q-33 -162 65 -214q82 -43 214 7q136 53 232 170 q19 23 34 47l49 -30q-87 -159 -225.5 -245.5t-323.5 -86.5q-47 0 -96.5 14.5t-100.5 47.5t-80.5 86.5t-36.5 132zM367 465q96 35 175.5 92t123 111.5t63.5 101.5t10 70q-95 -21 -203 -123t-169 -252zM373 1329q0 48 33.5 81.5t82.5 33.5q47 0 81 -34t34 -81t-34 -81t-81 -34 q-49 0 -82.5 33.5t-33.5 81.5zM672 1329q0 48 33.5 81.5t82.5 33.5q47 0 81 -34t34 -81t-34 -81t-81 -34q-49 0 -82.5 33.5t-33.5 81.5z" />
<glyph unicode="&#xec;" horiz-adv-x="491" d="M24 111q-28 55 3 135q33 84 119.5 279t156.5 348l70 153l219 -104q-221 -460 -313 -727q-12 -46 6.5 -71t79.5 -11q58 14 123 83t124 158l54 -24q-187 -330 -426 -330q-72 0 -130 28t-86 83zM303 1526h213l250 -309h-168z" />
<glyph unicode="&#xed;" horiz-adv-x="491" d="M24 111q-28 55 3 135q33 84 119.5 279t156.5 348l70 153l219 -104q-221 -460 -313 -727q-12 -46 6.5 -71t79.5 -11q58 14 123 83t124 158l54 -24q-187 -330 -426 -330q-72 0 -130 28t-86 83zM348 1227l252 309h211l-295 -309h-168z" />
<glyph unicode="&#xee;" horiz-adv-x="491" d="M24 111q-28 55 3 135q33 84 119.5 279t156.5 348l70 153l219 -104q-221 -460 -313 -727q-12 -46 6.5 -71t79.5 -11q58 14 123 83t124 158l54 -24q-187 -330 -426 -330q-72 0 -130 28t-86 83zM182 1284l576 264l100 -448q-5 3 -14.5 9t-36 29t-49.5 51.5t-49.5 79 t-42.5 109.5q-69 -44 -144 -70t-133 -31.5t-106.5 -4.5t-74.5 6z" />
<glyph unicode="&#xef;" horiz-adv-x="491" d="M24 111q-28 55 3 135q33 84 119.5 279t156.5 348l70 153l219 -104q-221 -460 -313 -727q-12 -46 6.5 -71t79.5 -11q58 14 123 83t124 158l54 -24q-187 -330 -426 -330q-72 0 -130 28t-86 83zM289 1329q0 48 34 81.5t83 33.5q47 0 80.5 -34t33.5 -81t-33.5 -81t-80.5 -34 q-49 0 -83 33.5t-34 81.5zM588 1329q0 48 34 81.5t83 33.5q47 0 80.5 -34t33.5 -81t-33.5 -81t-80.5 -34q-49 0 -83 33.5t-34 81.5z" />
<glyph unicode="&#xf1;" horiz-adv-x="1007" d="M30.5 117q-24.5 53 6.5 129q33 84 120 279t157 348l71 153l217 -104q-20 -43 -51 -109q108 108 216.5 172t152.5 31l6 -4q5 -5 12.5 -11.5t18.5 -16.5t22.5 -21t23.5 -23.5t22.5 -25.5t19.5 -27t13.5 -26t6 -24t-3.5 -22q-179 -378 -264 -620q-12 -46 6.5 -71t79.5 -11 q59 14 125.5 84t121.5 157l54 -24q-187 -330 -424 -330q-73 0 -131.5 28t-86.5 83t3 135q62 156 235 536q17 38 -13 42q-46 7 -135 -66q-110 -91 -220 -256v4q-79 -183 -123 -311q-58 -167 -60 -195q-69 5 -121.5 34.5t-77 82.5zM393 1354q57 81 111 123t103.5 49.5 t98.5 -2.5t106.5 -28t116.5 -31.5t138 -8.5t162 37q-55 -87 -114.5 -131t-116 -48.5t-115 8.5t-119.5 35t-119 37t-124.5 7t-127.5 -47z" />
<glyph unicode="&#xf2;" horiz-adv-x="976" d="M63.5 308q2.5 72 32.5 157q36 107 90 198.5t106 150t113.5 107t102.5 72t82 41.5q41 17 96 -2q26 -11 82 -40.5t98 -53.5l43 -23q31 -75 34.5 -194t-33.5 -261.5t-113 -246.5q142 -43 258 164l47 -41q-65 -122 -170.5 -178t-190.5 -13q-142 -145 -364 -145 q-40 0 -81.5 10t-85 31.5t-76.5 59t-53 86.5t-17.5 121zM326.5 240q8.5 -66 43.5 -99t83 -18q98 33 174 153q-39 86 -39 209q0 80 16 145t36.5 101t46.5 61.5t39.5 33t21.5 10.5q-2 1 -5.5 2t-5.5 2q-37 4 -93 -30t-113.5 -92.5t-110 -144.5t-78.5 -176q-24 -91 -15.5 -157z M395 1526h213l250 -309h-168zM657 485q0 -63 17 -123q56 116 81 245.5t11 193.5q-109 -100 -109 -316z" />
<glyph unicode="&#xf3;" horiz-adv-x="976" d="M63.5 308q2.5 72 32.5 157q36 107 90 198.5t106 150t113.5 107t102.5 72t82 41.5q41 17 96 -2q26 -11 82 -40.5t98 -53.5l43 -23q31 -75 34.5 -194t-33.5 -261.5t-113 -246.5q142 -43 258 164l47 -41q-65 -122 -170.5 -178t-190.5 -13q-142 -145 -364 -145 q-40 0 -81.5 10t-85 31.5t-76.5 59t-53 86.5t-17.5 121zM326.5 240q8.5 -66 43.5 -99t83 -18q98 33 174 153q-39 86 -39 209q0 80 16 145t36.5 101t46.5 61.5t39.5 33t21.5 10.5q-2 1 -5.5 2t-5.5 2q-37 4 -93 -30t-113.5 -92.5t-110 -144.5t-78.5 -176q-24 -91 -15.5 -157z M410 1227l252 309h210l-294 -309h-168zM657 485q0 -63 17 -123q56 116 81 245.5t11 193.5q-109 -100 -109 -316z" />
<glyph unicode="&#xf4;" horiz-adv-x="976" d="M63.5 308q2.5 72 32.5 157q36 107 90 198.5t106 150t113.5 107t102.5 72t82 41.5q41 17 96 -2q26 -11 82 -40.5t98 -53.5l43 -23q31 -75 34.5 -194t-33.5 -261.5t-113 -246.5q142 -43 258 164l47 -41q-65 -122 -170.5 -178t-190.5 -13q-142 -145 -364 -145 q-40 0 -81.5 10t-85 31.5t-76.5 59t-53 86.5t-17.5 121zM303 1284l576 264l100 -448q-6 3 -15.5 9t-36 29t-49.5 51.5t-49.5 79t-42.5 109.5q-69 -44 -144 -70t-133 -31.5t-106 -4.5t-74 6zM326.5 240q8.5 -66 43.5 -99t83 -18q98 33 174 153q-39 86 -39 209q0 80 16 145 t36.5 101t46.5 61.5t39.5 33t21.5 10.5q-2 1 -5.5 2t-5.5 2q-37 4 -93 -30t-113.5 -92.5t-110 -144.5t-78.5 -176q-24 -91 -15.5 -157zM657 485q0 -63 17 -123q56 116 81 245.5t11 193.5q-109 -100 -109 -316z" />
<glyph unicode="&#xf5;" horiz-adv-x="976" d="M63.5 308q2.5 72 32.5 157q36 107 90 198.5t106 150t113.5 107t102.5 72t82 41.5q41 17 96 -2q26 -11 82 -40.5t98 -53.5l43 -23q31 -75 34.5 -194t-33.5 -261.5t-113 -246.5q142 -43 258 164l47 -41q-65 -122 -170.5 -178t-190.5 -13q-142 -145 -364 -145 q-40 0 -81.5 10t-85 31.5t-76.5 59t-53 86.5t-17.5 121zM326.5 240q8.5 -66 43.5 -99t83 -18q98 33 174 153q-39 86 -39 209q0 80 16 145t36.5 101t46.5 61.5t39.5 33t21.5 10.5q-2 1 -5.5 2t-5.5 2q-37 4 -93 -30t-113.5 -92.5t-110 -144.5t-78.5 -176q-24 -91 -15.5 -157z M457 1354q57 81 111 123t103.5 49.5t98.5 -2.5t106.5 -28t116 -31.5t137.5 -8.5t162 37q-55 -87 -114.5 -131t-116 -48.5t-114.5 8.5t-119 35t-119.5 37t-124.5 7t-127 -47zM657 485q0 -63 17 -123q56 116 81 245.5t11 193.5q-109 -100 -109 -316z" />
<glyph unicode="&#xf6;" horiz-adv-x="976" d="M63.5 308q2.5 72 32.5 157q36 107 90 198.5t106 150t113.5 107t102.5 72t82 41.5q41 17 96 -2q26 -11 82 -40.5t98 -53.5l43 -23q31 -75 34.5 -194t-33.5 -261.5t-113 -246.5q142 -43 258 164l47 -41q-65 -122 -170.5 -178t-190.5 -13q-142 -145 -364 -145 q-40 0 -81.5 10t-85 31.5t-76.5 59t-53 86.5t-17.5 121zM326.5 240q8.5 -66 43.5 -99t83 -18q98 33 174 153q-39 86 -39 209q0 80 16 145t36.5 101t46.5 61.5t39.5 33t21.5 10.5q-2 1 -5.5 2t-5.5 2q-37 4 -93 -30t-113.5 -92.5t-110 -144.5t-78.5 -176q-24 -91 -15.5 -157z M449 1329q0 48 33.5 81.5t82.5 33.5q47 0 81 -34t34 -81t-34 -81t-81 -34q-49 0 -82.5 33.5t-33.5 81.5zM657 485q0 -63 17 -123q56 116 81 245.5t11 193.5q-109 -100 -109 -316zM748 1329q0 48 33.5 81.5t82.5 33.5q47 0 81 -34t34 -81t-34 -81t-81 -34q-49 0 -82.5 33.5 t-33.5 81.5z" />
<glyph unicode="&#xf7;" horiz-adv-x="1155" d="M178 557l68 145h723l-68 -145h-723zM358 324q0 49 33.5 82.5t81.5 33.5t82.5 -33.5t34.5 -82.5q0 -47 -35 -81t-82 -34t-81 34t-34 81zM569 913q0 47 35 81t82 34t81 -34t34 -81t-34 -81.5t-81 -34.5t-82 34.5t-35 81.5z" />
<glyph unicode="&#xf8;" horiz-adv-x="976" d="M58.5 313q3.5 70 31.5 152q36 107 90 198.5t106 150t113.5 107t102.5 72t82 41.5q41 17 96 -2q3 -2 20 -9t27 -13l92 202h121l-117 -254l80 -43q17 -42 25.5 -103t7.5 -132.5t-16 -149t-41.5 -152.5t-71.5 -142.5t-102.5 -119t-139.5 -83t-178 -33.5l-78 -170h-121 l84 184q-44 12 -81.5 34t-69.5 60t-49 86.5t-13.5 118.5zM336 397q-42 -142 6 -229l293 641q-88 -55 -174 -167.5t-125 -244.5zM442 123h4q56 18 107 69t86.5 116.5t65 141.5t42 145.5t17.5 128t-8 87.5z" />
<glyph unicode="&#xf9;" horiz-adv-x="997" d="M24 111q-28 55 3 135q33 84 119.5 279t156.5 348l70 153l219 -104q-221 -460 -313 -727q-12 -46 6.5 -71t79.5 -11q77 19 172 137q34 84 120.5 278t156.5 346l69 152l219 -104q-222 -460 -316 -727q-12 -46 7.5 -71t80.5 -11q106 25 248 241l52 -24q-187 -330 -424 -330 q-82 0 -147 35.5t-81 99.5q-128 -135 -282 -135q-72 0 -130 28t-86 83zM395 1526h213l250 -309h-168z" />
<glyph unicode="&#xfa;" horiz-adv-x="997" d="M24 111q-28 55 3 135q33 84 119.5 279t156.5 348l70 153l219 -104q-221 -460 -313 -727q-12 -46 6.5 -71t79.5 -11q77 19 172 137q34 84 120.5 278t156.5 346l69 152l219 -104q-222 -460 -316 -727q-12 -46 7.5 -71t80.5 -11q106 25 248 241l52 -24q-187 -330 -424 -330 q-82 0 -147 35.5t-81 99.5q-128 -135 -282 -135q-72 0 -130 28t-86 83zM610 1227l252 309h211l-295 -309h-168z" />
<glyph unicode="&#xfb;" horiz-adv-x="997" d="M24 111q-28 55 3 135q33 84 119.5 279t156.5 348l70 153l219 -104q-221 -460 -313 -727q-12 -46 6.5 -71t79.5 -11q77 19 172 137q34 84 120.5 278t156.5 346l69 152l219 -104q-222 -460 -316 -727q-12 -46 7.5 -71t80.5 -11q106 25 248 241l52 -24q-187 -330 -424 -330 q-82 0 -147 35.5t-81 99.5q-128 -135 -282 -135q-72 0 -130 28t-86 83zM434 1284l576 264l100 -448q-5 3 -14.5 9t-36 29t-49.5 51.5t-49.5 79t-42.5 109.5q-69 -44 -144 -70t-133 -31.5t-106.5 -4.5t-74.5 6z" />
<glyph unicode="&#xfc;" horiz-adv-x="997" d="M24 111q-28 55 3 135q33 84 119.5 279t156.5 348l70 153l219 -104q-221 -460 -313 -727q-12 -46 6.5 -71t79.5 -11q77 19 172 137q34 84 120.5 278t156.5 346l69 152l219 -104q-222 -460 -316 -727q-12 -46 7.5 -71t80.5 -11q106 25 248 241l52 -24q-187 -330 -424 -330 q-82 0 -147 35.5t-81 99.5q-128 -135 -282 -135q-72 0 -130 28t-86 83zM553 1329q0 48 34 81.5t83 33.5q47 0 80.5 -34t33.5 -81t-33.5 -81t-80.5 -34q-49 0 -83 33.5t-34 81.5zM852 1329q0 48 34 81.5t83 33.5q47 0 80.5 -34t33.5 -81t-33.5 -81t-80.5 -34q-49 0 -83 33.5 t-34 81.5z" />
<glyph unicode="&#xfd;" horiz-adv-x="980" d="M12.5 -334.5q5.5 40.5 31 77.5t71.5 68t104 46q82 23 172 20q13 27 44.5 98t45.5 103q-109 -84 -227 -84q-53 0 -101 16t-82.5 47.5t-44 77.5t12.5 107q34 84 121 278.5t157 347.5l70 152l219 -102q-221 -461 -315 -730q-12 -45 7.5 -69t80.5 -10q80 19 182 149l344 762 l219 -102q-352 -768 -477 -1080q47 -12 178 -50.5t211 -57.5q92 -23 172 -26.5t129 8t85 26.5t50 28l15 13q0 -3 0.5 -8t-1 -20.5t-5 -30t-12.5 -34.5t-22 -36.5t-35.5 -32.5t-50.5 -26.5t-69.5 -15.5t-91.5 -1q-80 4 -284 74.5t-306 95.5q-129 -291 -415 -252 q-68 9 -112 36t-60 62t-10.5 75.5zM115 -330q10 -40 80 -51q51 -8 86 36t73 134q-2 2 -8 2q-120 11 -192 -44q-49 -37 -39 -77zM610 1227l252 309h211l-295 -309h-168z" />
<glyph unicode="&#xff;" horiz-adv-x="980" d="M12.5 -334.5q5.5 40.5 31 77.5t71.5 68t104 46q82 23 172 20q13 27 44.5 98t45.5 103q-109 -84 -227 -84q-53 0 -101 16t-82.5 47.5t-44 77.5t12.5 107q34 84 121 278.5t157 347.5l70 152l219 -102q-221 -461 -315 -730q-12 -45 7.5 -69t80.5 -10q80 19 182 149l344 762 l219 -102q-352 -768 -477 -1080q47 -12 178 -50.5t211 -57.5q92 -23 172 -26.5t129 8t85 26.5t50 28l15 13q0 -3 0.5 -8t-1 -20.5t-5 -30t-12.5 -34.5t-22 -36.5t-35.5 -32.5t-50.5 -26.5t-69.5 -15.5t-91.5 -1q-80 4 -284 74.5t-306 95.5q-129 -291 -415 -252 q-68 9 -112 36t-60 62t-10.5 75.5zM115 -330q10 -40 80 -51q51 -8 86 36t73 134q-2 2 -8 2q-120 11 -192 -44q-49 -37 -39 -77zM553 1329q0 48 34 81.5t83 33.5q47 0 80.5 -34t33.5 -81t-33.5 -81t-80.5 -34q-49 0 -83 33.5t-34 81.5zM852 1329q0 48 34 81.5t83 33.5 q47 0 80.5 -34t33.5 -81t-33.5 -81t-80.5 -34q-49 0 -83 33.5t-34 81.5z" />
<glyph unicode="&#x152;" horiz-adv-x="2525" d="M1.5 906.5q-4.5 109.5 38.5 201.5t123.5 172t186.5 136t232.5 88t255.5 32q239 0 389.5 -84.5t210.5 -228.5q44 96 121.5 173.5t178.5 124t228.5 40t253.5 -77.5q145 -82 150 -228q3 -120 -84 -228q-82 -102 -193 -128q-124 -28 -221 62q79 -2 182 87q99 86 137 181 q46 115 -39 160l-8 4q-128 59 -287 -29q-121 -67 -201 -186q-83 -124 -61 -218q25 -110 193 -117q12 -1 24 -1q0 -8 -0.5 -21t-5 -46.5t-12.5 -60.5t-26 -51t-42 -28q-160 -37 -252 -160q-81 -107 -69 -218q11 -114 116 -167q69 -35 169 -35q97 0 185 18.5t151.5 47.5 t118.5 64.5t90.5 71t60.5 64.5t36 47l11 19l53 -27q-4 -9 -12.5 -24t-39.5 -59t-68.5 -84t-101.5 -89t-136 -84t-173.5 -59t-213.5 -24q-191 0 -311.5 52t-170.5 142q-207 -207 -460 -207q-115 0 -200.5 32.5t-134.5 91t-73.5 135.5t-21 169.5t26.5 190.5t65 200 q67 160 179 307t236 253l77 -7q147 -22 142 -78q-4 -26 -38 -57q-114 -98 -208.5 -224t-152.5 -261q-64 -155 -77 -299t26 -232t119 -88q93 0 183 56.5t159 148.5t122 212t79 243.5t21.5 247.5t-42.5 219q-41 99 -137 165t-244 66q-100 0 -193.5 -31.5t-165.5 -83 t-135.5 -118t-107.5 -136.5t-77 -139.5t-50 -125t-20 -93.5q-60 109 -64.5 218.5z" />
<glyph unicode="&#x153;" horiz-adv-x="1781" d="M63.5 308q2.5 72 32.5 157q36 107 90 198.5t106 150t113.5 107t102.5 72t82 41.5q41 17 96 -2q26 -11 82 -40.5t98 -53.5l43 -23q51 -130 27 -327q40 82 91.5 152.5t98.5 116.5t99.5 84.5t88 58t70.5 34.5q41 18 93 -2q25 -11 80.5 -40.5t98.5 -53.5l42 -23 q0 -10 -1.5 -27t-12.5 -68t-31 -98.5t-63.5 -108.5t-101.5 -109.5t-153.5 -90.5t-212.5 -61q-33 -162 65 -214q82 -43 214 7q136 53 232 170q18 23 34 47l49 -30q-87 -159 -225.5 -245.5t-323.5 -86.5q-74 0 -152 35.5t-122 105.5q-90 -31 -152 4q-142 -145 -364 -145 q-40 0 -81.5 10t-85 31.5t-76.5 59t-53 86.5t-17.5 121zM326.5 240q8.5 -66 43.5 -99t83 -18q98 33 174 153q-39 86 -39 209q0 80 16 145t36.5 101t46.5 61.5t39.5 33t21.5 10.5q-2 1 -5.5 2t-5.5 2q-37 4 -93 -30t-113.5 -92.5t-110 -144.5t-78.5 -176q-24 -91 -15.5 -157z M657 485q0 -63 17 -123q56 116 81 245.5t11 193.5q-109 -100 -109 -316zM797 213q33 -10 67 -4q-12 44 -12 98q-23 -48 -55 -94zM1155 465q96 35 175.5 92t123 111.5t64 101.5t10.5 70q-95 -21 -203.5 -123t-169.5 -252z" />
<glyph unicode="&#x178;" horiz-adv-x="1155" d="M3 1230.5q3 40.5 23.5 84.5t57.5 84q99 106 297 131q185 23 342 -35q151 -56 187 -161q25 -75 -17 -163q-49 -98 -182 -405q-36 -83 3 -136q33 -46 93 -34q77 15 135 117l365 800l217 -102q-477 -1041 -631 -1417q93 -19 187 -56t168.5 -76t148 -77t153.5 -65.5 t158 -34.5q121 -11 210 26t114 94v-18t-4.5 -44t-13 -63t-28 -66.5t-46.5 -63t-71 -44.5t-100 -18q-79 0 -166 31t-169.5 78.5t-165.5 98t-183.5 98t-193.5 69.5q-71 17 -132 22t-103 1.5t-78.5 -17.5t-56.5 -27t-39.5 -35t-26.5 -33.5t-17 -30.5q-1 -3 -2 -4t-2 -3l-2 -4 q-5 42 10 90t61.5 96.5t117.5 71.5q31 76 233 528q-105 -61 -262 -61q-106 7 -159.5 71t-10.5 172q33 84 88 210t94 210l39 84q20 45 22.5 85t-10 69t-34.5 52t-53 35.5t-65 18.5t-70.5 2t-69 -15t-61 -32t-46.5 -49q-50 -86 -47.5 -158t53.5 -120t131 -50 q-39 -34 -81.5 -52t-81 -17.5t-75.5 12.5t-65 37t-50 56.5t-31 71.5t-6 80.5zM793 1946h213l63 -248h-168zM1225 1692l73 247h211l-116 -247h-168z" />
<glyph unicode="&#x2c6;" horiz-adv-x="1427" d="M403 1610q6 -3 15.5 -9t36 -29.5t49.5 -52t49.5 -79t42.5 -109.5q69 44 144 70t133 31.5t106 4.5t74 -7l26 -5l-575 -264z" />
<glyph unicode="&#x2dc;" horiz-adv-x="917" d="M344 1417q57 81 111 123t103.5 49.5t98.5 -2.5t106.5 -28t116.5 -31.5t138 -8.5t162 37q-55 -87 -114.5 -131t-116 -48.5t-115 8.5t-119.5 35t-119 37t-124.5 7t-127.5 -47z" />
<glyph unicode="&#x2000;" horiz-adv-x="1003" />
<glyph unicode="&#x2001;" horiz-adv-x="2007" />
<glyph unicode="&#x2002;" horiz-adv-x="1003" />
<glyph unicode="&#x2003;" horiz-adv-x="2007" />
<glyph unicode="&#x2004;" horiz-adv-x="669" />
<glyph unicode="&#x2005;" horiz-adv-x="501" />
<glyph unicode="&#x2006;" horiz-adv-x="334" />
<glyph unicode="&#x2007;" horiz-adv-x="334" />
<glyph unicode="&#x2008;" horiz-adv-x="250" />
<glyph unicode="&#x2009;" horiz-adv-x="401" />
<glyph unicode="&#x200a;" horiz-adv-x="111" />
<glyph unicode="&#x2010;" horiz-adv-x="890" d="M205 557l67 145h537l-68 -145h-536z" />
<glyph unicode="&#x2011;" horiz-adv-x="890" d="M205 557l67 145h537l-68 -145h-536z" />
<glyph unicode="&#x2012;" horiz-adv-x="890" d="M205 557l67 145h537l-68 -145h-536z" />
<glyph unicode="&#x2013;" horiz-adv-x="1361" d="M305 557l68 145h723l-68 -145h-723z" />
<glyph unicode="&#x2014;" horiz-adv-x="1671" d="M150 557l67 145h1274l-68 -145h-1273z" />
<glyph unicode="&#x2018;" horiz-adv-x="262" d="M207 1214q5 93 60 130q24 16 55 16q46 0 79 -32.5t33 -78.5q0 -42 -28 -74t-70 -38q-23 -50 15 -106t116 -73q-133 -23 -208 78q-57 76 -52 178z" />
<glyph unicode="&#x2019;" horiz-adv-x="468" d="M313 946q81 17 120 74.5t16 109.5q-43 6 -72 38.5t-29 76.5q0 47 34 81t81 34q74 0 105 -79q31 -80 0 -177q-35 -107 -124 -145q-58 -26 -131 -13z" />
<glyph unicode="&#x201c;" horiz-adv-x="673" d="M164 1100q34 -108 122 -148q61 -28 138 -14q-84 16 -122 75t-15 113q44 6 74 39t30 78q-2 48 -35 82.5t-82 34.5q-75 0 -107 -81q-33 -81 -3 -179zM488 1202q5 97 61 138q27 20 63 20q47 0 81 -35t34 -82q0 -45 -29.5 -78t-72.5 -39q-25 -54 13.5 -113t123.5 -75 q-140 -24 -219 79q-59 78 -55 185z" />
<glyph unicode="&#x201d;" horiz-adv-x="673" d="M236 946q87 16 142.5 73.5t49.5 110.5q-42 6 -60.5 38.5t-5.5 76.5q15 47 60 81t92 34q69 0 79 -70q11 -77 -47 -175q-65 -110 -166 -153q-70 -30 -144 -16zM565 946q87 16 143 74t50 110q-40 6 -59.5 38.5t-6.5 76.5q15 47 60 81t92 34q69 0 79 -70q11 -76 -47 -174 q-65 -111 -166 -154q-71 -30 -145 -16z" />
<glyph unicode="&#x2022;" horiz-adv-x="1243" d="M385 522q0 88 63 150.5t152 62.5q88 0 150.5 -62.5t62.5 -150.5q0 -89 -62.5 -152t-150.5 -63q-89 0 -152 63t-63 152z" />
<glyph unicode="&#x202f;" horiz-adv-x="401" />
<glyph unicode="&#x205f;" horiz-adv-x="501" />
<glyph unicode="&#x20ac;" horiz-adv-x="1320" d="M-350 451l90 190h276q3 75 19 164h-215l92 190h178q47 126 118 235t160.5 193t201.5 132.5t231 48.5q266 0 368 -168q19 -31 21 -68t-10 -69t-33 -61t-49 -44.5t-57 -20t-58 12.5q9 120 -31.5 201t-115.5 81q-100 0 -196 -65t-169 -170t-123 -238h494l-92 -190h-457 q-18 -82 -21 -164h398l-90 -190h-297q12 -56 30 -107q41 -101 137 -167t244 -66q100 0 193.5 31.5t165.5 83t135 118t107.5 136.5t77.5 139.5t50 125t21 93.5q60 -108 64.5 -217t-38.5 -201t-123.5 -172t-186.5 -136t-232.5 -88t-255.5 -32q-242 0 -393.5 86.5t-210.5 232.5 q-27 68 -39 140h-379z" />
<glyph unicode="&#x2122;" horiz-adv-x="1566" d="M477 975v67h320v-67h-119v-324h-78v324h-123zM844 651v391h125l71 -270l72 270h123v-391h-76v312l-84 -312h-71l-84 312v-312h-76z" />
<glyph unicode="&#x25fc;" horiz-adv-x="1024" d="M0 0v1024h1024v-1024h-1024z" />
</font>
</defs>
</svg>
